<svg width="20" height="20" viewBox="0 0 20 20" fill="none" xmlns="http://www.w3.org/2000/svg">
<path fill-rule="evenodd" clip-rule="evenodd" d="M10 2.5C7.03708 2.5 5.5556 4.58934 5.5556 7.16667V8.61111C5.5556 9.53159 4.72761 10.292 4.06338 10.9292C3.63537 11.3398 3.33337 11.9222 3.33337 12.6111C3.33337 13.4702 3.99666 14.1667 4.81486 14.1667H15.1852C16.0034 14.1667 16.6667 13.4702 16.6667 12.6111C16.6667 11.9222 16.3647 11.3398 15.9367 10.9292C15.2725 10.292 14.4445 9.53158 14.4445 8.61111V7.16667C14.4445 4.58934 12.963 2.5 10 2.5Z" stroke="currentColor"/>
<path d="M11.6667 16.667C11.4973 16.9196 11.2542 17.1292 10.9617 17.2749C10.6692 17.4207 10.3376 17.4974 10 17.4974C9.66249 17.4974 9.33086 17.4207 9.03836 17.2749C8.74586 17.1292 8.50275 16.9196 8.33337 16.667" stroke="currentColor" stroke-linecap="round" stroke-linejoin="round"/>
</svg>
