<svg width="20" height="20" viewBox="0 0 20 20" fill="none" xmlns="http://www.w3.org/2000/svg">
<path d="M10.9687 16.8083L11.2593 17.2151L11.2593 17.2151L10.9687 16.8083ZM9.03126 16.8083L8.74064 17.2151L8.74064 17.2151L9.03126 16.8083ZM6.9584 15.3276L7.24902 14.9208L7.24902 14.9208L6.9584 15.3276ZM13.0416 15.3276L12.751 14.9208L12.751 14.9208L13.0416 15.3276ZM9.54212 2.63102L9.40476 2.15026L9.54212 2.63102ZM10.4579 2.63102L10.5952 2.15026L10.4579 2.63102ZM14.6245 3.8215L14.7619 3.34074L14.6245 3.8215ZM5.37545 3.8215L5.23809 3.34074L5.37545 3.8215ZM5.51282 4.30226L9.67948 3.11178L9.40476 2.15026L5.23809 3.34074L5.51282 4.30226ZM10.3205 3.11178L14.4872 4.30226L14.7619 3.34074L10.5952 2.15026L10.3205 3.11178ZM15.3333 5.42404V9.90275H16.3333V5.42404H15.3333ZM4.66666 9.90275V5.42404H3.66666V9.90275H4.66666ZM12.751 14.9208L10.6781 16.4014L11.2593 17.2151L13.3322 15.7345L12.751 14.9208ZM9.32188 16.4014L7.24902 14.9208L6.66778 15.7345L8.74064 17.2151L9.32188 16.4014ZM10.6781 16.4014C10.2725 16.6911 9.72753 16.6911 9.32188 16.4014L8.74064 17.2151C9.49399 17.7532 10.506 17.7532 11.2593 17.2151L10.6781 16.4014ZM3.66666 9.90275C3.66666 12.2172 4.78441 14.3892 6.66778 15.7345L7.24902 14.9208C5.62844 13.7632 4.66666 11.8943 4.66666 9.90275H3.66666ZM15.3333 9.90275C15.3333 11.8943 14.3715 13.7632 12.751 14.9208L13.3322 15.7345C15.2156 14.3892 16.3333 12.2172 16.3333 9.90275H15.3333ZM9.67948 3.11178C9.88896 3.05193 10.111 3.05193 10.3205 3.11178L10.5952 2.15026C10.2062 2.03911 9.7938 2.03911 9.40476 2.15026L9.67948 3.11178ZM14.4872 4.30226C14.988 4.44536 15.3333 4.90314 15.3333 5.42404H16.3333C16.3333 4.45666 15.692 3.60649 14.7619 3.34074L14.4872 4.30226ZM5.23809 3.34074C4.30794 3.60649 3.66666 4.45666 3.66666 5.42404H4.66666C4.66666 4.90314 5.01196 4.44536 5.51282 4.30226L5.23809 3.34074Z" fill="currentColor"/>
<path d="M8.33331 7.5L11.6666 10.8333M11.6666 7.5L8.33331 10.8333" stroke="currentColor" stroke-linecap="round"/>
</svg>
