<svg width="20" height="20" viewBox="0 0 20 20" fill="none" xmlns="http://www.w3.org/2000/svg">
<path fill-rule="evenodd" clip-rule="evenodd" d="M8.29016 0C6.49207 0 4.89571 1.15059 4.3271 2.85641C4.26345 3.04736 4.10666 3.19256 3.91139 3.24138L3.10615 3.44269C1.28064 3.89906 0 5.53928 0 7.42097V15C0 17.7614 2.23858 20 5 20H15C17.7614 20 20 17.7614 20 15V7.42097C20 5.53928 18.7194 3.89906 16.8938 3.44268L16.0886 3.24138C15.8933 3.19256 15.7365 3.04736 15.6729 2.85641C15.1043 1.15059 13.5079 0 11.7098 0H8.29016ZM10 9C8.89543 9 8 9.89543 8 11C8 12.1046 8.89543 13 10 13C11.1046 13 12 12.1046 12 11C12 9.89543 11.1046 9 10 9ZM6 11C6 8.79086 7.79086 7 10 7C12.2091 7 14 8.79086 14 11C14 13.2091 12.2091 15 10 15C7.79086 15 6 13.2091 6 11Z" fill="url(#paint0_linear_1210:1400)"/>
<defs>
<linearGradient id="paint0_linear_1210:1400" x1="10" y1="0" x2="10" y2="20" gradientUnits="userSpaceOnUse">
<stop stop-color="#FE037B"/>
<stop offset="1" stop-color="#FF9500"/>
</linearGradient>
</defs>
</svg>
