<svg width="16" height="16" viewBox="0 0 16 16" fill="none" xmlns="http://www.w3.org/2000/svg">
<path fill-rule="evenodd" clip-rule="evenodd" d="M1.53272 7.52876C1.79379 7.26841 2.21708 7.26841 2.47815 7.52876L5.15225 10.1954C5.41332 10.4558 5.41332 10.8779 5.15225 11.1382C4.89117 11.3986 4.46789 11.3986 4.20681 11.1382L1.53272 8.47157C1.27165 8.21122 1.27165 7.78911 1.53272 7.52876Z" fill="#73C323"/>
<path fill-rule="evenodd" clip-rule="evenodd" d="M6.21241 8.19526C6.47348 7.93491 6.89677 7.93491 7.15784 8.19526L9.16341 10.1953C9.42448 10.4556 9.42448 10.8777 9.16341 11.1381C8.90234 11.3984 8.47905 11.3984 8.21798 11.1381L6.21241 9.13807C5.95133 8.87772 5.95133 8.45561 6.21241 8.19526Z" fill="#73C323"/>
<path fill-rule="evenodd" clip-rule="evenodd" d="M10.5007 4.86177C10.7617 5.12212 10.7617 5.54423 10.5007 5.80457L5.15247 11.1379C4.8914 11.3983 4.46811 11.3983 4.20704 11.1379C3.94596 10.8776 3.94596 10.4554 4.20704 10.1951L9.55522 4.86177C9.8163 4.60142 10.2396 4.60142 10.5007 4.86177Z" fill="#73C323"/>
<path fill-rule="evenodd" clip-rule="evenodd" d="M14.5119 4.86177C14.773 5.12212 14.773 5.54423 14.5119 5.80457L9.1637 11.1379C8.90263 11.3983 8.47934 11.3983 8.21827 11.1379C7.95719 10.8776 7.95719 10.4554 8.21827 10.1951L13.5665 4.86177C13.8275 4.60142 14.2508 4.60142 14.5119 4.86177Z" fill="#73C323"/>
</svg>
