<svg width="12" height="12" viewBox="0 0 12 12" fill="none" xmlns="http://www.w3.org/2000/svg">
<path d="M5.25 11C2.62665 11 0.5 8.76142 0.5 6C0.5 3.23858 2.62665 1 5.25 1C7.87335 1 10 3.23858 10 6C10 8.76142 7.87335 11 5.25 11Z" stroke="currentColor" stroke-linecap="round" stroke-linejoin="round"/>
<path d="M6.5 4.4C6.18177 4.14195 5.78471 4.00077 5.375 4C4.3395 4 3.5 4.895 3.5 6C3.5 7.105 4.3395 8 5.375 8C5.797 8 6.1865 7.851 6.5 7.6" stroke="currentColor" stroke-linecap="round" stroke-linejoin="round"/>
<path d="M5 1C7.1665 1 11.5 1.5 11.5 6C11.5 10.5 7.1665 11 5 11" stroke="currentColor"/>
</svg>
