<svg width="12" height="14" viewBox="0 0 12 14" fill="none" xmlns="http://www.w3.org/2000/svg">
<path fill-rule="evenodd" clip-rule="evenodd" d="M6.38274 13.5455C6.15299 13.7066 5.84658 13.7064 5.61683 13.5453L5.61515 13.5441L5.61143 13.5414L5.599 13.5326C5.58855 13.5251 5.57377 13.5145 5.55498 13.5008C5.51739 13.4734 5.46368 13.4337 5.39614 13.3824C5.26112 13.2799 5.07047 13.1305 4.8427 12.9397C4.38814 12.5589 3.7807 12.0089 3.17124 11.3322C1.97575 10.0047 0.666626 8.07336 0.666626 5.90877C0.666626 4.44057 1.22075 3.02614 2.21694 1.97819C3.21423 0.929096 4.57426 0.333008 5.99996 0.333008C7.42565 0.333008 8.78569 0.929096 9.78297 1.97819C10.7792 3.02614 11.3333 4.44057 11.3333 5.90877C11.3333 8.07336 10.0242 10.0047 8.82868 11.3322C8.21922 12.0089 7.61178 12.5589 7.15722 12.9397C6.92945 13.1305 6.7388 13.2799 6.60378 13.3824C6.53624 13.4337 6.48252 13.4734 6.44494 13.5008C6.42614 13.5145 6.41137 13.5251 6.40091 13.5326L6.38849 13.5414L6.38477 13.5441L6.38354 13.5449L6.38274 13.5455ZM3.99996 5.66634C3.99996 4.56177 4.89539 3.66634 5.99996 3.66634C7.10453 3.66634 7.99996 4.56177 7.99996 5.66634C7.99996 6.77091 7.10453 7.66634 5.99996 7.66634C4.89539 7.66634 3.99996 6.77091 3.99996 5.66634Z" fill="currentColor"/>
</svg>
