<svg width="24" height="24" viewBox="0 0 24 24" fill="none" xmlns="http://www.w3.org/2000/svg">
<path d="M3.8119 13.0657L3.42596 13.3836L3.8119 13.0657ZM20.188 10.9343L19.802 11.2522L20.188 10.9343ZM3.8119 10.9343L4.19784 11.2522H4.19784L3.8119 10.9343ZM20.188 13.0657L19.802 12.7478V12.7478L20.188 13.0657ZM18.6439 14.0336C18.45 14.2303 18.4523 14.5469 18.649 14.7407C18.8457 14.9346 19.1623 14.9323 19.3561 14.7356L18.6439 14.0336ZM10.9222 5.58554C10.6494 5.62851 10.4631 5.88447 10.5061 6.15725C10.5491 6.43003 10.805 6.61633 11.0778 6.57336L10.9222 5.58554ZM11.9999 17.5C10.3281 17.5 8.73808 16.7599 7.36706 15.7735C5.99998 14.79 4.89298 13.5918 4.19784 12.7478L3.42596 13.3836C4.15091 14.2638 5.32006 15.5327 6.78304 16.5853C8.24208 17.635 10.036 18.5 11.9999 18.5V17.5ZM11.9999 6.5C13.6718 6.5 15.2618 7.24007 16.6328 8.22646C17.9999 9.21001 19.1069 10.4082 19.802 11.2522L20.5739 10.6164C19.8489 9.73623 18.6798 8.46727 17.2168 7.41472C15.7578 6.365 13.9638 5.5 11.9999 5.5V6.5ZM4.19784 12.7478C3.83347 12.3054 3.83347 11.6946 4.19784 11.2522L3.42596 10.6164C2.75743 11.4281 2.75743 12.5719 3.42596 13.3836L4.19784 12.7478ZM20.5739 13.3836C21.2424 12.5719 21.2424 11.4281 20.5739 10.6164L19.802 11.2522C20.1664 11.6946 20.1664 12.3054 19.802 12.7478L20.5739 13.3836ZM19.802 12.7478C19.494 13.1218 19.1035 13.5673 18.6439 14.0336L19.3561 14.7356C19.84 14.2446 20.2504 13.7764 20.5739 13.3836L19.802 12.7478ZM16.0662 16.1581C14.8285 16.9478 13.4443 17.5 11.9999 17.5V18.5C13.699 18.5 15.27 17.8524 16.6041 17.0012L16.0662 16.1581ZM4.19784 11.2522C4.93701 10.3547 6.14032 9.05873 7.62564 8.04522L7.062 7.2192C5.46784 8.30698 4.19571 9.68184 3.42596 10.6164L4.19784 11.2522ZM11.0778 6.57336C11.3818 6.52548 11.6894 6.5 11.9999 6.5V5.5C11.6345 5.5 11.2748 5.53 10.9222 5.58554L11.0778 6.57336Z" fill="currentColor
"/>
<path d="M3 3L21 21" stroke="currentColor" stroke-linecap="round" stroke-linejoin="round"/>
<path d="M11.2236 14.8977C10.7149 14.7614 10.2511 14.4936 9.87875 14.1212C9.50638 13.7489 9.23859 13.285 9.10229 12.7764" stroke="currentColor" stroke-linecap="round"/>
</svg>
