<svg width="28" height="27" viewBox="0 0 28 27" fill="none" xmlns="http://www.w3.org/2000/svg">
<path d="M13.696 1.85741C13.818 1.60303 14.182 1.60303 14.304 1.85741L17.8803 9.31288C17.9295 9.41526 18.0273 9.48597 18.1404 9.5008L26.3734 10.5804C26.6544 10.6172 26.7668 10.9616 26.5613 11.1556L20.5385 16.843C20.4558 16.9211 20.4185 17.0355 20.4392 17.147L21.9512 25.2697C22.0028 25.5469 21.7083 25.7597 21.4593 25.6252L14.1607 21.6847C14.0605 21.6306 13.9395 21.6306 13.8393 21.6847L6.5407 25.6252C6.29167 25.7597 5.99718 25.5469 6.04877 25.2697L7.56077 17.147C7.58154 17.0355 7.54417 16.9211 7.46146 16.843L1.43867 11.1556C1.23317 10.9616 1.34565 10.6172 1.62657 10.5804L9.85965 9.5008C9.9727 9.48597 10.0705 9.41526 10.1197 9.31288L13.696 1.85741Z" stroke="#FEBF2F" stroke-width="2.66667" stroke-linecap="round" stroke-linejoin="round"/>
</svg>
