<svg width="70" height="63" viewBox="0 0 70 63" fill="none" xmlns="http://www.w3.org/2000/svg">
<path fill-rule="evenodd" clip-rule="evenodd" d="M55.2206 3.74357L68.9874 27.5337C70.3375 29.847 70.3375 32.7077 68.9876 35.021L55.2509 58.8111C53.9121 61.1298 51.4372 62.5571 48.7599 62.5547H21.2563C18.5789 62.5573 16.1039 61.1298 14.7653 58.8111L0.998444 35.021C-0.332815 32.7028 -0.332815 29.8519 0.998444 27.5337L14.7653 3.74357C16.1041 1.42495 18.5789 -0.0024024 21.2563 3.40353e-06H48.7296C51.4069 -0.00254392 53.882 1.42495 55.2206 3.74357Z" fill="url(#paint0_linear_201_2764)"/>
<path d="M33.0812 17.733C33.6852 15.7921 36.3148 15.7921 36.9188 17.733L39.0767 24.6677C39.3468 25.5357 40.1214 26.1233 40.9955 26.1233H47.9786C49.933 26.1233 50.7456 28.7348 49.1645 29.9343L43.515 34.2202C42.8079 34.7566 42.512 35.7075 42.7821 36.5755L44.94 43.5102C45.544 45.451 43.4165 47.065 41.8353 45.8655L36.1859 41.5796C35.4788 41.0431 34.5212 41.0431 33.8141 41.5796L28.1647 45.8655C26.5835 47.065 24.456 45.451 25.06 43.5101L27.2179 36.5755C27.488 35.7075 27.1921 34.7566 26.485 34.2202L20.8355 29.9343C19.2544 28.7348 20.067 26.1233 22.0214 26.1233H29.0045C29.8786 26.1233 30.6532 25.5357 30.9233 24.6677L33.0812 17.733Z" fill="white"/>
<defs>
<linearGradient id="paint0_linear_201_2764" x1="-3.91155e-07" y1="31.2774" x2="70" y2="31.2774" gradientUnits="userSpaceOnUse">
<stop stop-color="#FEBF2F"/>
<stop offset="1" stop-color="#F4AB00"/>
</linearGradient>
</defs>
</svg>
