<svg width="16" height="16" viewBox="0 0 16 16" fill="none" xmlns="http://www.w3.org/2000/svg">
<path d="M12.5 5.6L14 5.6M12.5 5.6C12.5 4.71634 11.8284 4 11 4C10.1716 4 9.5 4.71634 9.5 5.6M12.5 5.6C12.5 6.48366 11.8284 7.2 11 7.2C10.1716 7.2 9.5 6.48366 9.5 5.6M9.5 5.6L2 5.6M3.5 10.4C3.5 11.2837 4.17157 12 5 12C5.82843 12 6.5 11.2837 6.5 10.4M3.5 10.4C3.5 9.51634 4.17157 8.8 5 8.8C5.82843 8.8 6.5 9.51634 6.5 10.4M3.5 10.4L2 10.4M6.5 10.4L14 10.4" stroke="currentColor" stroke-width="1.5" stroke-linecap="round" stroke-linejoin="round"/>
</svg>
