<svg width="32" height="18" viewBox="0 0 32 18" fill="none" xmlns="http://www.w3.org/2000/svg">
<path d="M31.4414 17.0975C31.4534 17.0951 31.4652 17.0918 31.477 17.0888C31.4871 17.0862 31.4973 17.0841 31.5072 17.081C31.5188 17.0775 31.53 17.0731 31.5413 17.0691C31.5513 17.0655 31.5614 17.0622 31.5713 17.0581C31.582 17.0536 31.5922 17.0484 31.6026 17.0435C31.6127 17.0387 31.6229 17.0343 31.6329 17.0289C31.6428 17.0236 31.6521 17.0176 31.6617 17.0119C31.6716 17.006 31.6816 17.0004 31.6912 16.9939C31.7015 16.9871 31.711 16.9795 31.7209 16.9721C31.7293 16.9659 31.7378 16.9601 31.7459 16.9534C31.7609 16.9411 31.7752 16.928 31.789 16.9145C31.7915 16.912 31.7942 16.91 31.7967 16.9075C31.7993 16.9049 31.8015 16.9021 31.804 16.8994C31.8174 16.8857 31.8303 16.8716 31.8425 16.8568C31.8496 16.8481 31.8558 16.839 31.8625 16.8301C31.8694 16.8208 31.8766 16.8118 31.883 16.8022C31.8898 16.7919 31.8958 16.7813 31.9021 16.7708C31.9074 16.7619 31.913 16.7532 31.9179 16.744C31.9237 16.7334 31.9285 16.7224 31.9336 16.7115C31.9381 16.7019 31.9429 16.6924 31.9471 16.6825C31.9515 16.6718 31.955 16.661 31.9589 16.6502C31.9627 16.6396 31.9668 16.6292 31.97 16.6185C31.9734 16.6075 31.9758 16.5964 31.9785 16.5853C31.9812 16.5744 31.9844 16.5637 31.9865 16.5527C31.9891 16.5396 31.9907 16.5265 31.9925 16.5133C31.9938 16.5041 31.9956 16.4949 31.9965 16.4856C31.9988 16.4625 32 16.4395 32 16.4164V1.58307C32 1.19972 31.6894 0.889099 31.306 0.889099H9.44584C9.43973 0.889099 9.43381 0.889839 9.4277 0.890024C9.41447 0.890394 9.40133 0.89095 9.38819 0.89206C9.37774 0.892893 9.36737 0.894096 9.35701 0.895484C9.34516 0.896964 9.33341 0.898722 9.32166 0.90085C9.31065 0.902793 9.29973 0.905107 9.28891 0.907605C9.2779 0.910196 9.26688 0.912972 9.25597 0.916118C9.24514 0.919171 9.2345 0.922502 9.22395 0.926018C9.21312 0.929719 9.2023 0.933606 9.19166 0.937862C9.18157 0.941841 9.17167 0.945912 9.16186 0.950353C9.15094 0.955258 9.14012 0.960532 9.12938 0.965992C9.12022 0.970711 9.11125 0.975522 9.10237 0.980611C9.09163 0.986718 9.08108 0.993195 9.07063 0.999857C9.06202 1.00541 9.0536 1.01115 9.04527 1.01698C9.03547 1.02391 9.02575 1.03113 9.01622 1.03872C9.00752 1.04566 8.99901 1.05278 8.99059 1.06009C8.98226 1.0674 8.97403 1.07471 8.96598 1.08249C8.95682 1.09128 8.94803 1.10044 8.93933 1.10969C8.93498 1.11432 8.93035 1.11839 8.92619 1.12311C8.92369 1.12588 8.92175 1.12894 8.91934 1.13171C8.91064 1.1418 8.9025 1.15235 8.89436 1.16299C8.88844 1.17076 8.88233 1.17853 8.87678 1.18649C8.86956 1.19685 8.8629 1.20749 8.85624 1.21823C8.85078 1.22702 8.84513 1.23572 8.84014 1.24469C8.83431 1.25505 8.82922 1.2657 8.82394 1.27634C8.81913 1.28605 8.81414 1.29577 8.80979 1.30567C8.80525 1.31612 8.80127 1.32695 8.79729 1.33759C8.79332 1.34805 8.78925 1.35841 8.78582 1.36896C8.7824 1.3796 8.77962 1.39043 8.77666 1.40125C8.7737 1.41236 8.77055 1.42337 8.76806 1.43456C8.76574 1.44502 8.76417 1.45566 8.76232 1.46621C8.76028 1.47824 8.75825 1.49027 8.75677 1.50229C8.75556 1.51229 8.75501 1.52247 8.75427 1.53264C8.75334 1.5456 8.75251 1.55855 8.75233 1.5716C8.75223 1.57539 8.75177 1.5791 8.75177 1.58289V5.86258C8.75177 6.24593 9.06239 6.55656 9.44574 6.55656C9.8291 6.55656 10.1397 6.24593 10.1397 5.86258V3.12416L16.3097 8.58685C16.2775 8.60952 16.2465 8.6346 16.2176 8.66337L10.1396 14.7414V10.1808C10.1396 9.79742 9.829 9.4868 9.44565 9.4868C9.0623 9.4868 8.75168 9.79742 8.75168 10.1808V11.0287H5.16614C4.78279 11.0287 4.47217 11.3393 4.47217 11.7227C4.47217 12.106 4.78279 12.4167 5.16614 12.4167H8.75168V16.4168C8.75168 16.8002 9.0623 17.1108 9.44565 17.1108H31.3058C31.3287 17.1108 31.3516 17.1096 31.3743 17.1074C31.385 17.1064 31.3952 17.1043 31.4057 17.1028C31.4177 17.1012 31.4296 17.0998 31.4414 17.0975ZM30.612 14.7415L24.5339 8.66347C24.53 8.65958 24.5258 8.65634 24.5218 8.65264L29.0912 4.77591C29.3834 4.52793 29.4193 4.09008 29.1714 3.79778C28.9236 3.50566 28.4857 3.46957 28.1932 3.71765L20.3855 10.3419L11.2764 2.27714H30.612V14.7415ZM17.1992 9.64502C17.2487 9.59552 17.2889 9.54037 17.3202 9.48171L19.9158 11.7797C20.047 11.8958 20.2113 11.9541 20.3758 11.9541C20.5356 11.9541 20.6952 11.8992 20.8249 11.7893L23.47 9.54509C23.4941 9.58025 23.5212 9.61384 23.5524 9.64502L29.6304 15.723H11.1212L17.1992 9.64502Z" fill="currentColor"/>
<path d="M0.693975 8.79264H12.4145C12.7978 8.79264 13.1084 8.48202 13.1084 8.09867C13.1084 7.71532 12.7978 7.40469 12.4145 7.40469H0.693975C0.310623 7.40469 0 7.71532 0 8.09867C0 8.48202 0.310623 8.79264 0.693975 8.79264Z" fill="currentColor"/>
<path d="M1.90833 4.96829H7.17097C7.55432 4.96829 7.86494 4.65766 7.86494 4.27431C7.86494 3.89096 7.55432 3.58034 7.17097 3.58034H1.90833C1.52498 3.58034 1.21436 3.89096 1.21436 4.27431C1.21436 4.65766 1.52498 4.96829 1.90833 4.96829Z" fill="currentColor"/>
<path d="M5.78312 13.959H0.693975C0.310623 13.959 0 14.2696 0 14.6529C0 15.0363 0.310623 15.3469 0.693975 15.3469H5.78312C6.16647 15.3469 6.4771 15.0363 6.4771 14.6529C6.4771 14.2696 6.16647 13.959 5.78312 13.959Z" fill="currentColor"/>
</svg>