<svg width="24" height="24" viewBox="0 0 24 24" fill="none" xmlns="http://www.w3.org/2000/svg">
<path d="M6,10h2c1.1,0,2-0.9,2-2V6c0-1.1-0.9-2-2-2H6C4.9,4,4,4.9,4,6v2C4,9.1,4.9,10,6,10z M16,10h2c1.1,0,2-0.9,2-2V6 c0-1.1-0.9-2-2-2h-2c-1.1,0-2,0.9-2,2v2C14,9.1,14.9,10,16,10z M16,20h2c1.1,0,2-0.9,2-2v-2c0-1.1-0.9-2-2-2h-2c-1.1,0-2,0.9-2,2v2 C14,19.1,14.9,20,16,20z M6,20h2c1.1,0,2-0.9,2-2v-2c0-1.1-0.9-2-2-2H6c-1.1,0-2,0.9-2,2v2C4,19.1,4.9,20,6,20z" stroke="currentColor" stroke-width="1.5" stroke-linecap="round" stroke-linejoin="round"/>
</svg>
