<svg width="36" height="50" viewBox="0 0 36 50" fill="none" xmlns="http://www.w3.org/2000/svg">
<path d="M31.4997 30.5627L4.65632 1.36854C3.61473 0.238619 1.83969 0.208533 0.764615 1.30837C-0.250175 2.34803 -0.253524 4.00614 0.764615 5.0458L28.3482 33.2838L31.503 30.5627H31.4997Z" fill="url(#paint0_linear_526_19751)"/>
<path opacity="0.35" d="M30.5752 30.2517L3.73178 1.05756C3.53418 0.843611 3.31314 0.669776 3.072 0.532715C3.6581 0.619632 4.22075 0.897098 4.65614 1.36846L31.4995 30.5626L28.3446 33.2837L27.7552 32.682L30.5752 30.2517Z" fill="#FFF1B6"/>
<path opacity="0.18" d="M0.764445 1.3083C0.814682 1.25815 0.868269 1.21135 0.921855 1.16455C0.757747 4.3036 23.8099 27.0792 29.0748 32.6553L28.3446 33.2871L0.761093 5.04573C-0.253698 4.00607 -0.253698 2.34796 0.761093 1.3083H0.764445Z" fill="#492B17"/>
<path d="M16.5925 33.3473C16.8135 33.5813 20.2397 30.7264 24.252 26.9723C28.2609 23.2181 31.3354 19.9855 31.1177 19.7515C30.8967 19.5174 27.4705 22.3723 23.4582 26.1265C19.4493 29.8806 16.3748 33.1133 16.5925 33.3473Z" fill="url(#paint1_linear_526_19751)"/>
<path d="M23.2741 37.0045C23.4951 37.2385 26.2381 35.2026 29.2925 32.3411C32.3469 29.4795 34.564 26.7583 34.343 26.5243C34.1219 26.2903 31.5532 28.6337 28.4954 31.4953C25.4376 34.3569 23.053 36.7705 23.2707 37.0045H23.2741Z" fill="url(#paint2_linear_526_19751)"/>
<path d="M12.7042 27.8047C12.9018 28.0153 16.0834 25.5282 19.7072 22.1351C23.331 18.7453 26.1074 15.8269 25.9098 15.6163C25.7122 15.4057 22.6143 17.9831 18.9939 21.3762C15.3701 24.766 12.5099 27.5941 12.7075 27.8047H12.7042Z" fill="url(#paint3_linear_526_19751)"/>
<path d="M14.3921 16.482C16.2207 14.7704 18.2168 13.9347 18.8532 14.61L19.8378 15.6563C20.4742 16.3349 19.5063 18.2705 17.681 19.9788C15.8523 21.6904 13.8563 22.5261 13.2199 21.8508L12.2353 20.8045C11.5989 20.1258 12.5668 18.1903 14.3921 16.482Z" fill="url(#paint4_linear_526_19751)"/>
<path d="M16.9006 31.589C21.1373 36.0986 27.1925 36.9778 30.6254 33.7652C34.0583 30.5527 33.6229 24.522 29.3326 19.9521C24.885 15.2185 20.0622 15.6497 16.626 18.8623C13.1931 22.0749 12.4529 26.8553 16.8973 31.589H16.9006Z" fill="url(#paint5_linear_526_19751)"/>
<path d="M12.1817 25.6853C15.8456 21.8509 19.744 18.2472 23.8568 14.8942C20.7588 14.259 17.8049 15.3489 15.4203 17.5786C13.0692 19.7783 11.7932 22.6064 12.1817 25.6853Z" fill="url(#paint6_linear_526_19751)"/>
<path opacity="0.35" d="M19.935 14.9944C21.1909 14.6668 22.5104 14.6166 23.8568 14.8908C23.5353 15.1549 23.2138 15.4223 22.8956 15.6864C21.9377 15.3487 20.9363 15.1114 19.935 14.9911V14.9944Z" fill="#FFF1B6"/>
<path d="M15.293 32.0035C20.0622 27.3534 24.9051 22.837 29.8785 18.3976C28.5757 17.1039 27.2495 16.1779 25.9332 15.5795C21.2377 19.3336 16.8169 23.4221 12.7041 27.808C13.2098 29.1887 14.0572 30.5961 15.293 32.0068V32.0035Z" fill="url(#paint7_linear_526_19751)"/>
<path opacity="0.35" d="M26.7337 17.7791C26.151 17.3077 25.4912 16.8831 24.7845 16.5121C25.1663 16.1978 25.5481 15.8869 25.9333 15.576C27.2495 16.1744 28.5758 17.1004 29.8786 18.3942C29.4733 18.7552 29.0748 19.1196 28.6729 19.4806C28.0466 18.8689 27.3835 18.3006 26.7337 17.7757V17.7791Z" fill="#FFF1B6"/>
<path d="M16.5691 33.324C17.9924 34.6511 19.5565 35.654 21.154 36.3193C25.8227 32.7991 29.9991 28.8076 33.7334 24.2813C33.1674 22.7368 32.2933 21.1957 31.1144 19.7549C26.1543 24.181 21.3248 28.6873 16.5691 33.324Z" fill="url(#paint8_linear_526_19751)"/>
<path opacity="0.35" d="M30.9938 22.4326C30.6924 21.8743 30.3273 21.3428 29.9154 20.838C30.3173 20.477 30.7125 20.1159 31.1144 19.7549C32.2966 21.199 33.1674 22.7368 33.7334 24.2813C33.2746 24.8362 32.809 25.3844 32.3335 25.926C31.945 24.7359 31.5866 23.5324 30.9905 22.4326H30.9938Z" fill="#FFF1B6"/>
<path d="M23.2741 37.0045C26.4825 37.7466 29.624 37.1215 31.8378 35.0488C34.1085 32.926 34.9358 29.7536 34.3296 26.4307C30.9938 30.3386 27.3165 33.852 23.2741 37.0011V37.0045Z" fill="url(#paint9_linear_526_19751)"/>
<path opacity="0.35" d="M32.8526 32.8994C33.2042 31.1945 33.0837 29.5063 33.1473 27.7813C33.5458 27.3367 33.9377 26.8887 34.3262 26.4341C34.8788 29.4628 34.2358 32.3612 32.3971 34.4605C32.5846 33.9558 32.7421 33.4343 32.8526 32.8994Z" fill="#FFF1B6"/>
<path opacity="0.21" d="M2.2314 1.46208C1.56157 1.3852 2.09744 2.87281 3.5945 4.52758C5.09157 6.18235 13.5214 16.1277 14.4256 15.2786C14.861 14.8707 3.59785 1.62255 2.2314 1.46208Z" fill="#FFF1B6"/>
<path opacity="0.84" d="M15.4203 17.5786C16.8906 16.0475 21.7736 20.1193 23.0028 21.7105C24.2285 23.3018 25.9902 29.0751 29.547 28.0956C33.1038 27.1161 34.2224 25.1237 35.0798 27.8181C35.9372 30.5125 32.9162 34.4606 33.6162 45.3553L33.6982 45.9748L33.7758 46.958V47.7909C33.7758 48.6488 32.4206 49.1964 32.3666 49.2225C32.3666 49.2225 28.7879 49.2315 29.0358 42.2548C29.1965 37.6916 32.4206 49.1964 32.4206 49.1964C32.1995 49.3067 31.9383 49.3936 31.6268 49.4538C28.3781 50.0655 28.8068 44.192 28.4987 41.3137C28.1939 38.4387 25.9835 38.3752 23.7161 37.8871C21.4488 37.399 15.2327 35.1492 13.4778 31.8898C9.32486 24.1776 13.9433 19.1097 15.417 17.5786H15.4203Z" fill="url(#paint10_linear_526_19751)"/>
<path opacity="0.35" d="M14.4725 32.8994C16.6696 34.611 19.8378 34.9553 22.5205 35.2695C23.9941 35.4434 25.528 35.44 26.9414 35.9415C28.4686 36.483 29.0413 37.6464 29.0279 39.2075C29.0212 39.9463 28.7399 40.8824 28.549 41.8184C28.5356 41.6412 28.5222 41.4741 28.5054 41.3136C28.2007 38.4386 25.9902 38.3751 23.7229 37.8871C21.5024 37.409 15.5074 35.2428 13.6051 32.097C13.8697 32.3845 14.1577 32.652 14.4725 32.8994Z" fill="url(#paint11_linear_526_19751)"/>
<path d="M28.8069 45.4288C28.8069 45.4288 28.9174 48.9522 30.6824 49.4303C31.4895 49.6509 32.9631 49.2197 32.9631 48.4107C32.9631 48.4107 31.7541 49.1729 30.8867 48.8219C29.6307 48.3171 28.8069 45.4254 28.8069 45.4254V45.4288Z" fill="url(#paint12_linear_526_19751)"/>
<path d="M29.1384 43.4564C29.1484 44.4325 29.2489 45.4321 29.6474 46.3313C29.9656 47.0434 30.8297 48.3237 31.7239 47.8858C32.7052 47.4044 30.6388 43.5299 30.3642 42.6273C29.9053 41.113 29.8316 39.749 29.6943 40.0867C29.2589 41.1531 29.125 42.3131 29.1384 43.4564Z" fill="url(#paint13_linear_526_19751)"/>
<path d="M28.0667 28.7474C29.9891 28.7741 32.2498 28.8243 33.5827 27.3701C33.9578 26.9622 34.6176 27.3768 34.7482 27.7646C35.0798 28.744 34.2693 29.6032 33.4354 29.9609C32.4541 30.3787 31.2048 30.2049 30.2068 29.8706C29.0212 29.4761 27.7418 28.744 28.07 28.7474H28.0667Z" fill="url(#paint14_linear_526_19751)"/>
<defs>
<linearGradient id="paint0_linear_526_19751" x1="12.6855" y1="29.6495" x2="18.6247" y2="4.16106" gradientUnits="userSpaceOnUse">
<stop stop-color="#DD9A68"/>
<stop offset="0.25" stop-color="#D99561"/>
<stop offset="0.6" stop-color="#CE884E"/>
<stop offset="1" stop-color="#BF7532"/>
</linearGradient>
<linearGradient id="paint1_linear_526_19751" x1="24.3032" y1="26.8159" x2="23.5098" y2="25.9683" gradientUnits="userSpaceOnUse">
<stop stop-color="#DD9A68"/>
<stop offset="0.25" stop-color="#D99561"/>
<stop offset="0.6" stop-color="#CE884E"/>
<stop offset="1" stop-color="#BF7532"/>
</linearGradient>
<linearGradient id="paint2_linear_526_19751" x1="29.3774" y1="32.1533" x2="28.584" y2="31.3057" gradientUnits="userSpaceOnUse">
<stop stop-color="#DD9A68"/>
<stop offset="0.25" stop-color="#D99561"/>
<stop offset="0.6" stop-color="#CE884E"/>
<stop offset="1" stop-color="#BF7532"/>
</linearGradient>
<linearGradient id="paint3_linear_526_19751" x1="19.758" y1="21.9779" x2="19.0469" y2="21.2183" gradientUnits="userSpaceOnUse">
<stop stop-color="#DD9A68"/>
<stop offset="0.25" stop-color="#D99561"/>
<stop offset="0.6" stop-color="#CE884E"/>
<stop offset="1" stop-color="#BF7532"/>
</linearGradient>
<linearGradient id="paint4_linear_526_19751" x1="17.7351" y1="19.8246" x2="14.4518" y2="16.3169" gradientUnits="userSpaceOnUse">
<stop stop-color="#DD9A68"/>
<stop offset="0.25" stop-color="#D99561"/>
<stop offset="0.6" stop-color="#CE884E"/>
<stop offset="1" stop-color="#BF7532"/>
</linearGradient>
<linearGradient id="paint5_linear_526_19751" x1="30.6835" y1="33.6072" x2="16.711" y2="18.6797" gradientUnits="userSpaceOnUse">
<stop stop-color="#DD9A68"/>
<stop offset="0.25" stop-color="#D99561"/>
<stop offset="0.6" stop-color="#CE884E"/>
<stop offset="1" stop-color="#BF7532"/>
</linearGradient>
<linearGradient id="paint6_linear_526_19751" x1="18.1079" y1="20.1678" x2="15.5082" y2="17.3904" gradientUnits="userSpaceOnUse">
<stop stop-color="#EAAF88"/>
<stop offset="0.3" stop-color="#EAAC81"/>
<stop offset="0.74" stop-color="#EAA66E"/>
<stop offset="1" stop-color="#EAA260"/>
</linearGradient>
<linearGradient id="paint7_linear_526_19751" x1="22.6491" y1="25.0553" x2="19.1395" y2="21.3057" gradientUnits="userSpaceOnUse">
<stop stop-color="#EAAF88"/>
<stop offset="0.3" stop-color="#EAAC81"/>
<stop offset="0.74" stop-color="#EAA66E"/>
<stop offset="1" stop-color="#EAA260"/>
</linearGradient>
<linearGradient id="paint8_linear_526_19751" x1="27.8152" y1="30.5542" x2="23.8277" y2="26.2941" gradientUnits="userSpaceOnUse">
<stop stop-color="#EAAF88"/>
<stop offset="0.3" stop-color="#EAAC81"/>
<stop offset="0.74" stop-color="#EAA66E"/>
<stop offset="1" stop-color="#EAA260"/>
</linearGradient>
<linearGradient id="paint9_linear_526_19751" x1="31.9397" y1="34.8465" x2="28.8027" y2="31.495" gradientUnits="userSpaceOnUse">
<stop stop-color="#EAAF88"/>
<stop offset="0.3" stop-color="#EAAC81"/>
<stop offset="0.74" stop-color="#EAA66E"/>
<stop offset="1" stop-color="#EAA260"/>
</linearGradient>
<linearGradient id="paint10_linear_526_19751" x1="28.8839" y1="71.8517" x2="28.8839" y2="17.241" gradientUnits="userSpaceOnUse">
<stop stop-color="#FC9706"/>
<stop offset="0.49" stop-color="#FDAA04" stop-opacity="0.84"/>
<stop offset="1" stop-color="#FFBC04" stop-opacity="0.7"/>
</linearGradient>
<linearGradient id="paint11_linear_526_19751" x1="21.3148" y1="71.8549" x2="21.3148" y2="17.378" gradientUnits="userSpaceOnUse">
<stop stop-color="#FC9815"/>
<stop offset="1" stop-color="#EB7D14"/>
</linearGradient>
<linearGradient id="paint12_linear_526_19751" x1="32.9631" y1="47.4579" x2="28.8069" y2="47.4579" gradientUnits="userSpaceOnUse">
<stop stop-color="#FC9815"/>
<stop offset="0.02" stop-color="#FC9814"/>
<stop offset="1" stop-color="#FFBC04"/>
</linearGradient>
<linearGradient id="paint13_linear_526_19751" x1="31.9885" y1="44.008" x2="29.1384" y2="44.008" gradientUnits="userSpaceOnUse">
<stop stop-color="#F9E77C" stop-opacity="0"/>
<stop offset="0.01" stop-color="#F9E77E" stop-opacity="0.02"/>
<stop offset="0.3" stop-color="#FBEFAB" stop-opacity="0.36"/>
<stop offset="0.55" stop-color="#FCF6CF" stop-opacity="0.63"/>
<stop offset="0.76" stop-color="#FDFAE9" stop-opacity="0.83"/>
<stop offset="0.91" stop-color="#FEFDF9" stop-opacity="0.95"/>
<stop offset="1" stop-color="white"/>
</linearGradient>
<linearGradient id="paint14_linear_526_19751" x1="34.8252" y1="28.7039" x2="28.0131" y2="28.7039" gradientUnits="userSpaceOnUse">
<stop stop-color="white"/>
<stop offset="0.09" stop-color="#FEFDF9" stop-opacity="0.95"/>
<stop offset="0.24" stop-color="#FDFAE9" stop-opacity="0.83"/>
<stop offset="0.45" stop-color="#FCF6CF" stop-opacity="0.63"/>
<stop offset="0.7" stop-color="#FBEFAB" stop-opacity="0.36"/>
<stop offset="0.99" stop-color="#F9E77E" stop-opacity="0.02"/>
<stop offset="1" stop-color="#F9E77C" stop-opacity="0"/>
</linearGradient>
</defs>
</svg>
