<svg width="40" height="40" viewBox="0 0 40 40" fill="none" xmlns="http://www.w3.org/2000/svg">
<path fill-rule="evenodd" clip-rule="evenodd" d="M14.2547 5.00018C13.2267 5.00018 12.064 5.10854 10.9535 5.48705C4.25825 7.6731 2.10571 14.8233 3.99796 20.7166L4.00591 20.7414L4.01463 20.7659C5.05727 23.6957 6.73712 26.3545 8.92229 28.5415L8.93487 28.554L8.94772 28.5664C12.0631 31.5538 15.4543 34.1588 19.1261 36.4192L19.989 36.9505L20.8578 36.4288C24.5377 34.2191 27.994 31.5423 31.072 28.579L31.0816 28.5697L31.0911 28.5603C33.2952 26.3691 34.9752 23.6907 36.0025 20.7581L36.0111 20.7336L36.0189 20.7088C37.8753 14.8284 35.7335 7.66958 29.0845 5.51578C27.996 5.15367 26.8727 5.00018 25.7746 5.00018C23.3047 5.00017 21.4764 6.03437 20.0007 7.08846C18.5365 6.04239 16.696 5.00018 14.2547 5.00018Z" fill="url(#paint0_linear_1141:7801)"/>
<defs>
<linearGradient id="paint0_linear_1141:7801" x1="19.9997" y1="5.00018" x2="19.9997" y2="36.9505" gradientUnits="userSpaceOnUse">
<stop stop-color="#FE037B"/>
<stop offset="1" stop-color="#FF9500"/>
</linearGradient>
</defs>
</svg>
