<svg width="24" height="24" viewBox="0 0 24 24" fill="none" xmlns="http://www.w3.org/2000/svg">
<path d="M14.5 10C15.5 8.5 14.9937 6.88104 14.0481 5.94365C12.7789 4.68545 10.7211 4.68545 9.4519 5.94365L8.50004 6.88733L7.5481 5.94365C6.27889 4.68545 4.22111 4.68545 2.9519 5.94365C1.6827 7.20184 1.6827 9.24178 2.9519 10.5L8.50004 16L10 14.5M10.8787 15.5C9.70711 14.2418 9.70711 12.2018 10.8787 10.9436C12.0503 9.68545 13.9497 9.68545 15.1213 10.9436L16 11.8873L16.8787 10.9436C18.0503 9.68545 19.9497 9.68545 21.1213 10.9436C22.2929 12.2018 22.2929 14.2418 21.1213 15.5L16 21L10.8787 15.5Z" stroke="currentColor" stroke-width="1.5" stroke-linecap="round" stroke-linejoin="round"/>
</svg>
