<svg width="13" height="13" viewBox="0 0 13 13" fill="none" xmlns="http://www.w3.org/2000/svg">
  <path d="M6.5 11.5C9.26142 11.5 11.5 9.26142 11.5 6.5C11.5 3.73858 9.26142 1.5 6.5 1.5C3.73858 1.5 1.5 3.73858 1.5 6.5C1.5 9.26142 3.73858 11.5 6.5 11.5Z" stroke="currentColor" stroke-linecap="round" stroke-linejoin="round"/>
  <path d="M5.04504 5C5.1626 4.66583 5.39462 4.38405 5.70002 4.20457C6.00542 4.02508 6.36449 3.95947 6.71363 4.01936C7.06277 4.07924 7.37945 4.26076 7.60758 4.53176C7.83571 4.80277 7.96057 5.14576 7.96004 5.5C7.96004 6.5 6.46004 7 6.46004 7" stroke="currentColor" stroke-linecap="round" stroke-linejoin="round"/>
  <path d="M6.5 9H6.505" stroke="currentColor" stroke-linecap="round" stroke-linejoin="round"/>
</svg>
