<svg width="24" height="46" viewBox="0 0 24 46" fill="none" xmlns="http://www.w3.org/2000/svg">
<path d="M12.1969 0.515461C11.5569 0.295461 9.19694 9.83546 7.47694 13.1755C5.75694 16.5155 0.236937 24.9955 0.436937 31.6755C0.636937 38.3555 4.93694 46.1354 12.1769 45.4454C18.9269 44.9654 24.0169 39.1054 23.5369 32.3454C23.5269 32.1654 23.5069 31.9955 23.4869 31.8155C22.8269 24.8155 17.2369 18.6055 15.6969 14.0155C14.1569 9.42546 13.4369 0.935461 12.1869 0.515461H12.1969Z" fill="url(#paint0_linear_526_21346)"/>
<path d="M21.4473 26.6754C20.5073 24.6754 19.2773 22.8153 18.2773 20.8153C17.3673 18.9953 16.6073 17.0654 15.7373 15.2354C15.8973 16.9754 16.2373 18.6953 16.7373 20.3753C17.2273 22.0353 17.8473 23.6553 18.6073 25.2153C19.3173 26.6953 20.0773 28.1354 20.6973 29.6854C21.3773 31.2654 21.7673 32.9654 21.8473 34.6854C21.8473 35.7554 21.6473 36.8154 21.2673 37.8154C21.9273 37.0954 22.3873 36.2054 22.5973 35.2454C23.1473 32.3354 22.7373 29.3354 21.4473 26.6754Z" fill="url(#paint1_linear_526_21346)"/>
<path d="M11.9073 44.7154C10.2573 44.6954 8.62728 44.2854 7.16728 43.5154C5.65728 42.6154 4.44728 41.2854 3.67728 39.7054C1.88728 36.2754 1.81728 31.8654 2.50728 27.9754C2.84728 26.0254 3.40728 24.1154 4.15728 22.2754C5.02728 20.1354 6.15728 18.1754 7.15728 16.1254C7.70728 14.9854 8.22728 13.8254 8.67728 12.6154C9.12728 11.4054 9.44728 10.0954 9.80728 8.82541C10.4473 6.51541 10.9973 4.1554 11.4473 1.7854C10.4473 4.5154 8.81728 10.6254 7.44728 13.1754C5.71728 16.5154 0.23728 24.9954 0.44728 31.6754C0.65728 38.3554 4.94728 46.1354 12.1873 45.4454C13.6573 45.3154 15.0973 44.9354 16.4473 44.3354C14.9573 44.6454 13.4273 44.7654 11.9073 44.7154Z" fill="url(#paint2_linear_526_21346)"/>
<path opacity="0.79" d="M10.4469 12.1154C10.9269 12.2654 11.4469 12.1054 11.7569 11.7154C12.1569 11.2454 12.3969 10.6554 12.4469 10.0454C12.5069 9.30541 12.5069 8.57539 12.4469 7.83539C12.4469 6.90539 12.3869 5.9654 12.3369 5.0354C12.2769 3.8654 12.1669 2.69539 12.0269 1.52539C11.7969 2.43539 11.6169 3.3554 11.4369 4.2854C11.2169 5.4854 11.0369 6.72541 10.7169 7.88541C10.4469 8.73541 10.0969 9.5154 9.92693 10.4054C9.81693 11.0054 9.90693 11.8454 10.4469 12.1154Z" fill="url(#paint3_linear_526_21346)"/>
<path opacity="0.79" d="M12.627 30.5155C11.417 28.7455 9.80704 27.5155 8.52705 25.8855C7.84705 25.0055 7.31705 24.0355 6.93705 22.9955C6.68705 22.3055 6.48705 21.5855 6.28705 20.8755C5.88705 21.3355 5.55705 21.8455 5.28705 22.3955C4.96705 22.9855 4.67705 23.6055 4.38705 24.2255C4.40705 24.3955 4.38705 24.5755 4.30705 24.7355C2.67705 28.3455 2.32705 32.3955 3.30705 36.2255C4.16705 39.4755 6.17705 42.0955 8.81705 42.9655C10.127 43.4455 11.547 43.5455 12.907 43.2455C13.487 43.1155 14.027 42.8155 14.447 42.3955C14.917 41.8255 15.207 41.1255 15.297 40.3955C15.497 38.5955 15.297 36.7855 14.697 35.0755C14.237 33.4555 13.547 31.9255 12.627 30.5155Z" fill="url(#paint4_linear_526_21346)"/>
<path d="M14.6169 12.5155C14.6169 12.2755 14.4969 12.2155 14.4369 12.4555C14.3469 12.8955 13.9669 13.8755 12.1969 13.8055C11.1969 13.7155 10.2669 13.2555 9.58689 12.5155C9.44689 12.4355 9.36689 12.5155 9.39689 12.7055C9.58689 14.1055 10.7569 15.1655 12.1669 15.2155C14.0369 15.2855 14.6469 13.2855 14.6169 12.5155Z" fill="url(#paint5_linear_526_21346)"/>
<path opacity="0.79" d="M20.2274 29.6655C19.0474 27.2455 16.7974 25.2255 16.2274 22.4055C16.0674 21.6055 15.6274 21.8855 15.7874 22.6855C16.3274 25.3155 17.7874 27.3355 18.9574 29.5255C20.0574 31.5255 21.0874 34.2755 20.0974 36.6955C19.8074 37.4255 20.6774 38.0755 20.9774 37.3355C21.9874 34.8055 21.3374 31.9455 20.2274 29.6655Z" fill="url(#paint6_linear_526_21346)"/>
<defs>
<linearGradient id="paint0_linear_526_21346" x1="-0.933063" y1="11.4455" x2="23.6269" y2="37.7355" gradientUnits="userSpaceOnUse">
<stop stop-color="#FFBC04"/>
<stop offset="0.39" stop-color="#F4990E"/>
<stop offset="1" stop-color="#E05920"/>
</linearGradient>
<linearGradient id="paint1_linear_526_21346" x1="1.91731" y1="8.77535" x2="26.2873" y2="34.8653" gradientUnits="userSpaceOnUse">
<stop stop-color="#D46800"/>
<stop offset="0.66" stop-color="#B14E00"/>
<stop offset="1" stop-color="#9D3F00"/>
</linearGradient>
<linearGradient id="paint2_linear_526_21346" x1="-1.40272" y1="12.0154" x2="23.5373" y2="38.7154" gradientUnits="userSpaceOnUse">
<stop stop-color="#9D3F00"/>
<stop offset="0.34" stop-color="#B14E00"/>
<stop offset="1" stop-color="#D46800"/>
</linearGradient>
<linearGradient id="paint3_linear_526_21346" x1="13.0169" y1="2.42539" x2="10.8969" y2="11.5254" gradientUnits="userSpaceOnUse">
<stop stop-color="#F9E77C" stop-opacity="0"/>
<stop offset="0.32" stop-color="#FDD349" stop-opacity="0.25"/>
<stop offset="0.53" stop-color="#FFC72A" stop-opacity="0.4"/>
<stop offset="0.55" stop-color="#FFC92F" stop-opacity="0.43"/>
<stop offset="0.71" stop-color="#FFDE5B" stop-opacity="0.67"/>
<stop offset="0.84" stop-color="#FFEC7C" stop-opacity="0.85"/>
<stop offset="0.94" stop-color="#FFF690" stop-opacity="0.96"/>
<stop offset="0.99" stop-color="#FFF997"/>
</linearGradient>
<linearGradient id="paint4_linear_526_21346" x1="8.40704" y1="21.1755" x2="9.33705" y2="41.6055" gradientUnits="userSpaceOnUse">
<stop stop-color="#F9E77C" stop-opacity="0"/>
<stop offset="0.32" stop-color="#FDD349" stop-opacity="0.25"/>
<stop offset="0.53" stop-color="#FFC72A" stop-opacity="0.4"/>
<stop offset="0.55" stop-color="#FFC92F" stop-opacity="0.43"/>
<stop offset="0.71" stop-color="#FFDE5B" stop-opacity="0.67"/>
<stop offset="0.84" stop-color="#FFEC7C" stop-opacity="0.85"/>
<stop offset="0.94" stop-color="#FFF690" stop-opacity="0.96"/>
<stop offset="0.99" stop-color="#FFF997"/>
</linearGradient>
<linearGradient id="paint5_linear_526_21346" x1="10.5969" y1="11.4355" x2="13.6569" y2="14.7055" gradientUnits="userSpaceOnUse">
<stop stop-color="#9D3F00"/>
<stop offset="0.34" stop-color="#B14E00"/>
<stop offset="1" stop-color="#D46800"/>
</linearGradient>
<linearGradient id="paint6_linear_526_21346" x1="20.0074" y1="22.8755" x2="16.7674" y2="36.7855" gradientUnits="userSpaceOnUse">
<stop stop-color="#F9E77C" stop-opacity="0"/>
<stop offset="0.32" stop-color="#FDD349" stop-opacity="0.25"/>
<stop offset="0.53" stop-color="#FFC72A" stop-opacity="0.4"/>
<stop offset="0.55" stop-color="#FFC92F" stop-opacity="0.43"/>
<stop offset="0.71" stop-color="#FFDE5B" stop-opacity="0.67"/>
<stop offset="0.84" stop-color="#FFEC7C" stop-opacity="0.85"/>
<stop offset="0.94" stop-color="#FFF690" stop-opacity="0.96"/>
<stop offset="0.99" stop-color="#FFF997"/>
</linearGradient>
</defs>
</svg>
