<svg width="24" height="34" viewBox="0 0 24 34" fill="none" xmlns="http://www.w3.org/2000/svg">
<path d="M8.58397 10.4647C7.17397 13.7947 2.00399 18.3547 1.41399 23.4047C0.823985 28.4547 5.15399 32.7847 11.824 33.3047C18.494 33.8247 22.434 28.1547 22.634 23.3047C22.834 18.4547 17.764 12.2947 16.154 9.86472C14.544 7.43472 12.394 0.504712 11.814 0.664712C10.704 0.974712 9.99397 7.13473 8.58397 10.4647Z" fill="url(#paint0_linear_526_21345)"/>
<path d="M2.24357 25.9646C2.46357 26.6946 2.89358 27.3446 3.47358 27.8346C3.13358 27.1246 2.94357 26.3446 2.93357 25.5546C3.01357 24.2746 3.37358 23.0346 4.00358 21.9146C4.56358 20.7946 5.27356 19.7446 5.92356 18.6646C6.61356 17.5346 7.19357 16.3346 7.64357 15.0946C8.08357 13.8946 8.38356 12.6346 8.54356 11.3646C7.73356 12.6646 7.11358 13.9546 6.19358 15.4046C5.27358 16.8546 4.15357 18.1846 3.27357 19.6646C2.09357 21.5446 1.72357 23.8146 2.24357 25.9646Z" fill="url(#paint1_linear_526_21345)"/>
<path d="M7.92383 32.4947C9.18383 32.9447 10.4939 33.2147 11.8239 33.3047C18.4939 33.8247 22.4339 28.1547 22.6339 23.3047C22.8338 18.4547 17.7738 12.2947 16.1538 9.86475C14.9238 8.01475 13.3838 3.53473 12.4638 1.59473C12.9138 3.31473 13.4438 5.01473 14.0038 6.66473C14.3038 7.60473 14.6538 8.53473 15.0538 9.44473C15.4738 10.3247 15.9338 11.1748 16.4538 11.9948C17.3738 13.4648 18.4138 14.9148 19.2138 16.4648C19.8938 17.7748 20.4038 19.1648 20.7338 20.6048C21.3738 23.4348 21.3039 26.6647 19.6339 29.1247C18.8539 30.3347 17.7538 31.3048 16.4438 31.9048C15.0538 32.4748 13.5739 32.7748 12.0739 32.7848C10.6839 32.8248 9.29383 32.7247 7.92383 32.4947Z" fill="url(#paint2_linear_526_21345)"/>
<path opacity="0.79" d="M13.8539 7.85468C13.6439 7.22468 13.4039 6.61468 13.1239 6.01468C12.8539 5.15468 12.6339 4.28466 12.4639 3.40466C12.3039 2.73466 12.1239 2.06466 11.9139 1.40466C11.7839 2.24466 11.6839 3.09468 11.6339 3.95468V5.98468C11.5739 6.51468 11.5739 7.05469 11.6339 7.58469C11.6839 8.05469 11.9039 8.48469 12.2439 8.80469C12.5739 9.09469 13.0238 9.20467 13.4538 9.09467C13.8738 8.83467 14.0439 8.31468 13.8539 7.85468Z" fill="url(#paint3_linear_526_21345)"/>
<path opacity="0.79" d="M9.47347 25.7947C8.92347 27.0047 8.72345 28.3447 8.92345 29.6647C9.01345 30.2147 9.28346 30.7147 9.68346 31.0947C10.1035 31.4147 10.5935 31.6247 11.1135 31.7047C12.3735 31.9147 13.6535 31.8547 14.8835 31.5047C17.2935 30.8347 19.1935 28.9847 19.9535 26.6047C20.8635 23.8147 20.5234 20.7747 19.0434 18.2547C18.9734 18.1447 18.9435 18.0047 18.9635 17.8747C18.6935 17.4347 18.4235 16.9847 18.1335 16.5547C17.8835 16.1447 17.5835 15.7747 17.2335 15.4447C17.0535 15.9847 16.8635 16.4847 16.6335 16.9847C16.2835 17.7647 15.7935 18.4747 15.1935 19.0847C14.0135 20.3047 12.5335 21.1647 11.4135 22.4547C10.5735 23.4447 9.91347 24.5747 9.47347 25.7947Z" fill="url(#paint4_linear_526_21345)"/>
<path d="M9.58398 9.46469C9.66398 10.6347 10.684 11.5147 11.854 11.4247C13.024 11.4747 14.074 10.7147 14.404 9.59466C14.424 9.45466 14.354 9.40468 14.224 9.45468C13.544 10.0347 12.704 10.3647 11.814 10.4047C10.194 10.4047 9.804 9.62466 9.754 9.40466C9.704 9.18466 9.58398 9.23466 9.58398 9.40466C9.58398 9.42466 9.58398 9.44469 9.58398 9.46469Z" fill="url(#paint5_linear_526_21345)"/>
<path opacity="0.79" d="M3.73391 27.4447C4.01391 27.9747 4.81393 27.5048 4.53393 26.9748C3.59393 25.2148 4.50392 23.3947 5.59392 21.7747C6.68392 20.1547 8.01391 18.6947 8.51391 16.7747C8.66391 16.1947 8.25393 15.9947 8.10393 16.5747C7.57393 18.6247 5.50393 20.0948 4.41393 21.8448C3.38393 23.5048 2.79391 25.5847 3.73391 27.4447Z" fill="url(#paint6_linear_526_21345)"/>
<defs>
<linearGradient id="paint0_linear_526_21345" x1="21.804" y1="8.95471" x2="3.20399" y2="28.8647" gradientUnits="userSpaceOnUse">
<stop stop-color="#FFBC04"/>
<stop offset="0.39" stop-color="#F4990E"/>
<stop offset="1" stop-color="#E05920"/>
</linearGradient>
<linearGradient id="paint1_linear_526_21345" x1="18.6835" y1="6.04462" x2="0.0835375" y2="25.9446" gradientUnits="userSpaceOnUse">
<stop stop-color="#D46800"/>
<stop offset="0.66" stop-color="#B14E00"/>
<stop offset="1" stop-color="#9D3F00"/>
</linearGradient>
<linearGradient id="paint2_linear_526_21345" x1="22.2239" y1="9.36473" x2="3.62386" y2="29.2748" gradientUnits="userSpaceOnUse">
<stop stop-color="#9D3F00"/>
<stop offset="0.34" stop-color="#B14E00"/>
<stop offset="1" stop-color="#D46800"/>
</linearGradient>
<linearGradient id="paint3_linear_526_21345" x1="11.4239" y1="2.01466" x2="12.9739" y2="8.68467" gradientUnits="userSpaceOnUse">
<stop stop-color="#F9E77C" stop-opacity="0"/>
<stop offset="0.32" stop-color="#FDD349" stop-opacity="0.25"/>
<stop offset="0.53" stop-color="#FFC72A" stop-opacity="0.4"/>
<stop offset="0.55" stop-color="#FFC92F" stop-opacity="0.43"/>
<stop offset="0.71" stop-color="#FFDE5B" stop-opacity="0.67"/>
<stop offset="0.84" stop-color="#FFEC7C" stop-opacity="0.85"/>
<stop offset="0.94" stop-color="#FFF690" stop-opacity="0.96"/>
<stop offset="0.99" stop-color="#FFF997"/>
</linearGradient>
<linearGradient id="paint4_linear_526_21345" x1="15.1235" y1="15.6547" x2="14.4535" y2="30.5447" gradientUnits="userSpaceOnUse">
<stop stop-color="#F9E77C" stop-opacity="0"/>
<stop offset="0.32" stop-color="#FDD349" stop-opacity="0.25"/>
<stop offset="0.53" stop-color="#FFC72A" stop-opacity="0.4"/>
<stop offset="0.55" stop-color="#FFC92F" stop-opacity="0.43"/>
<stop offset="0.71" stop-color="#FFDE5B" stop-opacity="0.67"/>
<stop offset="0.84" stop-color="#FFEC7C" stop-opacity="0.85"/>
<stop offset="0.94" stop-color="#FFF690" stop-opacity="0.96"/>
<stop offset="0.99" stop-color="#FFF997"/>
</linearGradient>
<linearGradient id="paint5_linear_526_21345" x1="13.234" y1="8.32465" x2="10.604" y2="11.1347" gradientUnits="userSpaceOnUse">
<stop stop-color="#9D3F00"/>
<stop offset="0.34" stop-color="#B14E00"/>
<stop offset="1" stop-color="#D46800"/>
</linearGradient>
<linearGradient id="paint6_linear_526_21345" x1="4.93391" y1="17.0247" x2="7.23391" y2="26.9447" gradientUnits="userSpaceOnUse">
<stop stop-color="#F9E77C" stop-opacity="0"/>
<stop offset="0.32" stop-color="#FDD349" stop-opacity="0.25"/>
<stop offset="0.53" stop-color="#FFC72A" stop-opacity="0.4"/>
<stop offset="0.55" stop-color="#FFC92F" stop-opacity="0.43"/>
<stop offset="0.71" stop-color="#FFDE5B" stop-opacity="0.67"/>
<stop offset="0.84" stop-color="#FFEC7C" stop-opacity="0.85"/>
<stop offset="0.94" stop-color="#FFF690" stop-opacity="0.96"/>
<stop offset="0.99" stop-color="#FFF997"/>
</linearGradient>
</defs>
</svg>
