<svg width="12" height="12" viewBox="0 0 12 12" fill="none" xmlns="http://www.w3.org/2000/svg">
<path fill-rule="evenodd" clip-rule="evenodd" d="M6.28709 10.9094C6.11477 11.0302 5.88497 11.03 5.71265 10.9092L5.71139 10.9083L5.7086 10.9063L5.69928 10.8997C5.69144 10.8941 5.68036 10.8861 5.66626 10.8759C5.63808 10.8553 5.59779 10.8256 5.54713 10.7871C5.44587 10.7101 5.30288 10.5981 5.13205 10.455C4.79114 10.1695 4.33555 9.75693 3.87846 9.24938C2.98184 8.25378 2 6.80526 2 5.18182C2 4.08067 2.41559 3.01985 3.16274 2.23389C3.9107 1.44707 4.93073 1 6 1C7.06927 1 8.0893 1.44707 8.83726 2.23389C9.58441 3.01985 10 4.08067 10 5.18182C10 6.80526 9.01816 8.25378 8.12154 9.24938C7.66445 9.75693 7.20886 10.1695 6.86795 10.455C6.69712 10.5981 6.55413 10.7101 6.45287 10.7871C6.40221 10.8256 6.36192 10.8553 6.33374 10.8759C6.31964 10.8861 6.30856 10.8941 6.30072 10.8997L6.2914 10.9063L6.28861 10.9083L6.28769 10.9089L6.28709 10.9094ZM4.5 5C4.5 4.17157 5.17157 3.5 6 3.5C6.82843 3.5 7.5 4.17157 7.5 5C7.5 5.82843 6.82843 6.5 6 6.5C5.17157 6.5 4.5 5.82843 4.5 5Z" fill="url(#paint0_linear_340:11917)"/>
<defs>
<linearGradient id="paint0_linear_340:11917" x1="6" y1="1" x2="6" y2="10.9999" gradientUnits="userSpaceOnUse">
<stop stop-color="#FE037B"/>
<stop offset="1" stop-color="#FF9500"/>
</linearGradient>
</defs>
</svg>
