<svg width="24" height="24" viewBox="0 0 24 24" fill="none" xmlns="http://www.w3.org/2000/svg">
<path d="M16 11V11.75H16.75V11H16ZM8 11H7.25V11.75H8V11ZM12.75 15C12.75 14.5858 12.4142 14.25 12 14.25C11.5858 14.25 11.25 14.5858 11.25 15H12.75ZM11.25 17C11.25 17.4142 11.5858 17.75 12 17.75C12.4142 17.75 12.75 17.4142 12.75 17H11.25ZM6 11.75H18V10.25H6V11.75ZM19.25 13V19H20.75V13H19.25ZM18 20.25H6V21.75H18V20.25ZM4.75 19V13H3.25V19H4.75ZM6 20.25C5.30964 20.25 4.75 19.6904 4.75 19H3.25C3.25 20.5188 4.48122 21.75 6 21.75V20.25ZM19.25 19C19.25 19.6904 18.6904 20.25 18 20.25V21.75C19.5188 21.75 20.75 20.5188 20.75 19H19.25ZM18 11.75C18.6904 11.75 19.25 12.3096 19.25 13H20.75C20.75 11.4812 19.5188 10.25 18 10.25V11.75ZM6 10.25C4.48122 10.25 3.25 11.4812 3.25 13H4.75C4.75 12.3096 5.30964 11.75 6 11.75V10.25ZM15.25 7V11H16.75V7H15.25ZM16 10.25H8V11.75H16V10.25ZM8.75 11V7H7.25V11H8.75ZM12 3.75C13.7949 3.75 15.25 5.20507 15.25 7H16.75C16.75 4.37665 14.6234 2.25 12 2.25V3.75ZM12 2.25C9.37665 2.25 7.25 4.37665 7.25 7H8.75C8.75 5.20507 10.2051 3.75 12 3.75V2.25ZM11.25 15V17H12.75V15H11.25Z" fill="currentColor"/>
</svg>
