<svg width="602" height="138" viewBox="0 0 602 138" fill="none" xmlns="http://www.w3.org/2000/svg">
<g clip-path="url(#clip0_201_429)">
<path d="M182.416 92.0165C164.701 91.2964 148.931 97.7894 137.097 101.948C137.097 101.948 97.6649 117.16 85.033 99.9257C81.0424 93.2707 87.6374 79.3306 93.4403 69.3511C94.2624 69.6211 94.9465 69.8911 95.6246 70.0232C96.1767 70.2932 97.2688 71.1033 97.1428 73.0116C97.1548 75.466 96.8968 77.3743 96.9028 78.5985C96.9028 78.7365 96.6447 81.0528 97.4609 81.3229C98.145 81.4549 98.8231 81.3109 98.673 78.5865C98.385 75.868 97.8269 73.4137 98.7751 72.3215C99.5852 71.0913 100.401 71.2233 101.626 70.9413C108.437 70.4972 107.158 60.5537 106.594 57.6973C106.594 57.2892 106.18 57.0132 105.772 57.1572C104.32 57.6973 102.604 57.9733 100.881 58.1233C108.178 47.1837 119.136 33.7776 122.221 25.7184C125.719 17.5271 123.361 10.5901 117.222 8.71778C116.676 8.57976 115.584 8.45374 115.59 9.13184C116.454 17.8512 90.6198 52.0624 90.6198 52.0624C89.5396 53.7007 88.3215 55.3449 87.3793 56.9832C83.0107 56.059 78.3719 54.5828 73.5952 53.1126C83.8448 34.2517 85.6391 14.8927 78.798 9.88796C75.5155 7.45159 72.251 8.96982 70.4867 10.206C69.9467 10.4821 70.0847 11.4362 70.6308 11.5682C81.1444 15.4628 67.6603 40.7447 62.6736 49.632C54.8904 47.2197 47.3832 45.0833 40.4282 44.4412C15.4823 41.9929 5.25077 64.6703 5.25077 64.6703C-0.408091 76.2881 -0.630124 84.4614 0.630068 90.9964C3.01843 103.25 12.4279 105.105 12.4279 105.105C36.5816 110.823 62.5235 71.7094 70.0847 59.2635C74.4534 61.1478 78.828 63.1641 82.7886 64.9164C69.4486 91.1524 80.6943 104.444 80.6943 104.444C96.7648 126.294 142.87 110.499 142.87 110.499C150.485 108.273 158.652 106.323 166.279 105.597C167.372 105.597 168.458 105.855 168.602 106.671C168.884 108.171 168.344 109.263 168.35 110.763C168.362 112.126 168.368 113.488 169.73 113.344C170.276 113.206 170.402 111.568 170.396 110.613C170.252 109.251 169.838 108.027 170.51 106.797C170.912 105.843 172.136 105.429 173.775 105.825C175.683 106.227 178.269 105.801 179.769 105.657C187.001 106.707 193.284 109.533 197.4 115.234C197.676 115.642 198.36 115.636 198.492 115.234C201.193 111.129 210.902 93.0847 182.416 92.0225V92.0165ZM23.8056 92.6406C22.1914 96.6012 20.4331 98.1075 19.749 98.6595C17.1686 100.034 15.1283 100.592 14.0361 100.19C8.30524 98.3115 8.94134 91.0864 10.2675 83.9933C11.8578 76.0841 15.7704 69.5191 15.7704 69.5191C15.7704 69.5191 17.7927 65.2824 21.8553 60.9018C22.6714 60.4877 25.5279 59.2455 25.5519 64.2863C25.5699 67.2807 25.4199 88.542 23.8056 92.6406ZM26.542 94.1228C26.254 92.2146 25.9959 93.9908 25.8339 90.3123C25.6779 86.3577 26.272 70.6833 27.0641 66.3206C27.9942 61.8199 26.7581 60.3257 29.6025 57.0372C31.9008 54.3008 34.0732 52.9265 35.7054 52.3745C37.0676 52.0924 38.4298 51.9484 39.9301 51.8044C41.4243 51.7924 42.9245 51.7864 44.4248 51.9124C45.6549 52.0444 47.2932 52.8545 47.3052 54.8948C47.1792 57.3492 45.5769 62.402 47.3472 63.0741C48.9855 63.6082 49.5195 61.2858 48.8234 58.7054C48.2654 55.981 48.2533 54.0727 51.2478 54.0547C54.7943 54.0367 55.0644 53.8987 56.5646 54.1627C57.5188 54.4328 58.3409 54.8348 59.295 55.0989C47.5452 73.9718 35.4954 86.9878 26.542 94.1228Z" fill="#1D1F2B"/>
<path d="M152.873 50.4842C152.591 48.5759 150.953 47.4957 150.131 46.9556C149.855 46.8236 149.585 46.9556 149.447 47.0936C148.505 49.0079 147.149 49.8361 145.654 50.2501C146.59 47.9278 146.854 45.7494 146.854 45.7494C146.854 45.7494 148.313 38.6564 142.306 36.7841C134.661 34.3717 122.299 41.2548 114.498 58.8794C114.498 58.8794 104.134 82.235 122.149 86.7717C122.149 86.7717 122.557 86.9037 123.373 86.8977C125.287 87.4318 125.833 87.9719 126.793 89.3341C128.03 90.6903 126.817 93.4207 126.565 96.6912C126.307 99.9617 127.946 100.226 128.9 99.9497C129.854 99.6737 129.152 96.8113 129.152 96.5412C129.146 95.179 128.726 93.5467 128.714 90.8223C128.834 88.2299 131.138 86.5797 131.954 86.1656C132.362 86.0276 132.77 85.8896 133.04 85.6195C136.575 84.0953 140.65 81.0768 144.286 74.2418C144.286 74.2418 150.491 62.624 148.133 55.5549C149.357 55.4109 150.449 55.2669 151.403 54.7148C152.759 54.0247 153.293 52.5245 152.873 50.4842ZM125.323 70.1252C125.077 74.2178 125.095 77.6203 124.963 78.7125C124.831 79.6666 124.843 81.4369 124.027 81.851C120.75 80.3747 121.939 74.3678 123.007 70.4132C123.277 69.183 123.679 67.9528 124.213 66.5906C124.759 66.3146 125.713 66.4466 125.323 70.1252ZM142.246 50.4062C141.838 50.4062 141.292 50.2741 140.884 50.2801C139.929 50.0101 139.107 49.8781 138.561 49.7461C135.561 49.356 133.934 50.3161 133.394 51.5463C132.992 52.9145 133.274 54.0007 133.412 54.6848C133.55 54.9549 133.82 54.9549 133.958 54.8168C134.637 53.9947 136.269 53.9827 138.453 54.3788C140.92 56.6831 142.852 61.5799 139.089 70.3232C135.459 78.7905 131.108 81.4009 128.114 81.965C127.574 81.971 126.751 81.971 126.475 80.7468C126.331 79.2526 126.817 69.5731 126.805 67.1187C126.793 64.9404 127.315 60.7097 128.252 58.1173C128.66 57.5713 128.792 57.2952 128.792 57.2952C139.461 39.7965 145.342 43.9852 142.246 50.4062Z" fill="#1D1F2B"/>
<path d="M207.29 58.8975L205.243 58.9095C204.703 58.9095 204.295 59.1855 204.025 59.5996C203.659 60.1576 203.059 61.0638 202.297 62.174C198.6 67.5688 191.045 77.8364 187.091 77.4103C183.82 77.0202 185.02 73.0596 187.589 68.823C190.961 63.0801 195.156 57.3312 195.156 57.3312C198.666 52.5425 202.579 44.7533 197.238 40.0126C188.195 32.0253 173.469 53.6407 173.469 53.6407C168.734 59.9356 164.413 67.1787 161.173 72.7836C162.385 69.9151 164.137 66.2306 165.889 62.9481C168.854 57.7513 172.64 52.0084 172.64 52.0084C177.099 45.3054 174.345 40.0066 174.345 40.0066C172.826 36.8801 170.366 35.9439 169.004 35.6739C168.734 35.6799 168.326 35.8179 168.326 36.226C167.396 40.8647 156.588 57.4152 156.588 57.4152C153.888 61.7899 152.405 64.6583 151.199 68.2109C147.713 77.9024 150.053 82.6611 153.065 84.9594C153.888 85.4995 154.71 85.9016 155.796 85.8956C157.572 86.0216 159.474 85.6015 160.825 83.0091C162.439 79.3186 165.265 73.3057 168.908 67.1547C173.901 58.5434 180.934 48.8279 184.612 48.5339C184.612 48.5339 187.061 48.1138 183.412 53.7187C182.062 55.771 180.982 57.2772 179.223 60.0076C179.223 60.0076 175.443 65.4805 173.433 72.3095C171.428 78.8625 173.108 86.3457 180.736 86.5737C185.488 86.7357 192.665 81.851 199.405 73.0896C202.333 69.285 205.177 64.7484 207.704 59.5756C207.836 59.3055 207.56 58.8975 207.29 58.8975Z" fill="#1D1F2B"/>
<path d="M244.075 58.6874L242.035 58.6994C241.627 58.6994 241.081 58.9815 240.811 59.3895C240.637 59.6656 240.403 60.0256 240.109 60.4637C238.386 63.0381 234.804 68.1089 231.209 71.9795C231.209 71.9795 227.147 76.6362 222.118 78.9825C221.842 78.9825 220.618 78.9885 220.474 78.0344C220.198 76.8102 220.696 69.045 220.684 67.1367C220.678 65.2284 221.068 62.498 222.832 61.2618C237.798 57.0912 238.278 44.9573 238.278 44.9573C238.278 44.9573 239.053 37.7322 234 35.7159C228.263 33.4356 213.315 40.3306 204.013 58.3694C204.013 58.3694 203.227 59.8636 202.297 62.174C201.163 64.9944 199.807 69.039 199.404 73.0896C198.786 79.1926 200.323 85.3075 207.992 87.2398C207.992 87.2398 208.13 87.2338 208.262 87.2338C209.492 87.6358 209.906 88.1819 210.728 89.2681C211.964 90.7563 211.01 91.3084 210.482 94.0388C209.816 97.1773 211.454 97.3033 212.408 97.0213C213.357 96.7452 213.213 94.7049 213.213 94.4289C213.201 92.9287 213.339 92.9287 213.189 90.7503C213.177 88.71 215.217 87.6058 216.303 87.1918C217.527 86.9097 218.751 86.6337 220.114 86.2136C224.464 84.5574 229.349 81.2569 234.09 75.37C234.414 74.9679 234.738 74.5598 235.068 74.1398C238.296 70.0232 241.675 65.2044 244.489 59.3715C244.627 59.0955 244.489 58.6874 244.075 58.6874ZM219.724 65.6425C219.196 68.781 219.111 77.3623 218.979 78.1844C218.847 78.8625 218.031 79.9607 217.083 80.2367C215.721 80.3807 214.353 80.1167 212.991 79.4446C210.254 78.0944 210.506 74.2778 211.844 70.1852C212.649 67.5868 213.999 64.8564 215.211 62.534C216.165 62.39 216.981 62.384 217.797 62.246C217.797 62.246 220.114 62.504 219.724 65.6425ZM219.123 56.107C227.507 43.9312 232.812 42.539 233.916 45.1193C233.916 45.1193 235.71 49.2 226.475 54.4268C224.842 55.2549 221.848 56.089 219.123 56.107Z" fill="#1D1F2B"/>
<path d="M284.936 94.4529C280.381 94.1228 273.546 92.0225 264.142 89.2381C266.699 83.9093 268.835 76.2641 268.835 76.2641C269.507 74.6259 270.317 72.8496 270.989 71.3494C272.472 68.6129 273.96 66.5606 273.96 66.5606C274.854 65.3244 275.718 64.1002 276.528 62.9301L283.975 43.2891C283.729 42.605 283.495 42.2509 283.495 42.2509C281.707 39.1244 278.845 38.3263 277.476 38.2003C277.068 38.0623 276.66 38.3383 276.666 38.7464C275.736 43.3851 264.928 59.5275 264.928 59.5275C264.928 59.5275 262.762 62.81 260.872 65.1384C260.056 66.0926 259.246 67.1907 258.435 68.2829C258.165 68.4209 257.757 68.6969 257.349 68.6969C257.073 68.6969 256.797 68.1569 256.791 67.2027C256.647 65.7025 257.031 61.3398 257.019 58.8915C257.007 56.7071 257.397 53.4366 258.477 51.2523C262.66 44.6873 259.906 39.5205 259.906 39.5205C258.393 36.4 255.933 35.4579 254.703 35.1938C254.295 35.0558 253.887 35.3318 253.893 35.7399C252.963 40.2466 242.155 56.7911 242.155 56.7911C242.155 56.7911 241.273 58.2313 240.109 60.4637C238.746 63.0921 236.988 66.8247 235.83 70.5932C235.458 71.7874 235.194 72.9816 235.068 74.1398C234.528 78.8445 236.184 83.0151 241.765 84.1853C247.22 85.3795 252.921 80.9868 257.793 75.376C256.857 78.9225 255.927 82.7451 254.319 86.9757C240.409 85.9616 232.289 95.6831 232.289 95.6831C224.302 104.996 228.701 111.237 232.391 113.128C245.371 119.867 256.185 104.27 260.236 97.4353C265.018 99.7217 270.071 102.422 276.216 103.748C277.578 104.288 278.13 104.966 278.953 106.053C280.189 107.541 279.235 108.093 278.707 110.823C278.04 113.962 279.679 114.088 280.633 113.806C281.581 113.53 281.437 111.489 281.437 111.213C281.429 110.213 281.421 108.987 281.413 107.535C281.401 105.219 283.573 104.252 284.527 103.976C287.408 103.418 289.148 102.038 290.192 100.412L284.936 94.4529ZM255.537 61.8979C255.285 65.7145 255.567 66.8007 255.297 67.7548C255.165 68.709 255.453 71.0253 254.505 72.5315C252.201 74.7219 250.034 76.2341 248.528 75.9701C243.895 75.316 251.588 62.462 251.588 62.462C252.261 61.0938 253.071 59.8636 253.749 58.6334C254.019 58.3634 254.427 57.9493 254.835 57.9493C255.651 58.0813 255.795 59.1675 255.537 61.8979ZM233.868 109.305C229.079 105.921 236.256 98.6595 236.256 98.6595C240.865 94.2729 246.854 93.0127 251.222 94.0808C248.12 99.2776 239.473 113.086 233.868 109.305ZM291.555 93.3067C291.555 92.9587 291.146 92.7066 290.78 92.9046L291.597 93.8348C291.597 93.6488 291.573 93.4687 291.555 93.3067Z" fill="#1D1F2B"/>
<path d="M445.568 19.0514C437.749 10.374 425.345 9.21586 425.345 9.21586C425.345 9.21586 394.512 3.25695 378.592 31.1432C378.592 31.1432 375.393 36.8621 374.385 43.3671L384.041 54.6368C384.143 54.7568 384.245 54.8768 384.335 54.9969C384.347 50.4782 385.679 43.5831 391.284 35.0258C391.284 35.0258 391.824 34.3417 392.772 33.1115C393.72 32.1514 395.214 31.1912 396.043 33.2255C396.319 33.9096 397.033 39.3525 396.913 42.3529C396.793 45.6234 396.571 54.3488 395.37 58.7114C394.302 62.8101 394.872 67.0287 391.734 66.7767C390.324 66.5006 388.979 66.1586 387.611 65.7565C387.473 67.2807 387.101 68.793 386.483 70.2572L386.015 71.3674C388.835 72.1055 391.626 72.7296 394.224 73.1676C391.662 77.2663 389.502 81.2329 388.295 85.0555C383.483 101.294 395.088 105.321 398.089 105.573C398.497 105.573 398.767 105.165 398.629 104.756C396.397 95.365 401.101 84.4374 407.582 73.7737C411.945 73.7437 417.664 73.0296 423.647 71.3614C424.601 71.2233 428.279 70.7913 428.309 76.3781C428.327 79.1025 427.673 83.7412 427.679 85.1035C427.679 85.3735 427.151 88.1039 428.105 88.374C429.06 88.638 430.29 88.494 429.996 85.2295C429.708 81.959 428.574 75.0159 429.66 73.6477C430.74 72.4115 431.676 68.865 433.578 67.6288C442.406 63.0801 450.129 55.4049 452.787 42.719C454.774 33.4416 450.915 25.0163 445.568 19.0514ZM437.971 50.0221C430.272 61.9219 419.26 65.9365 411.771 67.2087C419.47 55.717 427.997 45.0413 430.542 37.3962C432.954 30.021 423.137 28.4428 419.59 28.0527C419.044 28.0527 418.504 28.6048 418.504 29.1509C418.972 39.9106 408.962 52.3685 400.171 64.5443C398.275 66.4646 397.711 63.2001 397.693 60.1997C397.675 56.6591 397.387 54.0667 398.035 47.6637C398.539 41.1167 397.999 41.3928 397.987 39.8925C398.353 31.8513 400.093 26.5285 403.076 23.7861C407.42 20.7616 412.995 18.2772 419.26 17.5631C427.565 16.561 434.796 18.0192 439.459 23.174C439.459 23.174 449.457 32.3794 437.971 50.0221Z" fill="#1D1F2B"/>
<path d="M502.061 59.7436L500.014 59.7556C499.468 59.7616 499.066 60.0376 498.796 60.4457C498.538 60.8358 498.172 61.3818 497.716 62.0479C497.716 62.0479 497.716 62.0479 497.71 62.0599C494.32 67.0047 486.05 78.3524 481.724 78.2564C481.724 78.2564 478.183 78.2744 482.756 67.4848C487.731 55.4649 498.832 43.5471 502.085 40.2586C502.493 39.9826 502.217 39.3045 501.671 39.3105L491.451 39.3645C490.635 39.3645 489.819 39.7845 489.141 40.4686C488.463 41.1527 487.514 42.1129 486.296 43.4811C486.146 41.3028 485.45 38.4463 482.036 36.8321C476.437 34.4077 461.212 41.4468 451.911 59.4855C451.911 59.4855 440.047 82.169 453.417 85.2295H453.693C455.74 85.7636 456.154 86.3036 457.252 87.6599C458.35 89.0161 457.138 91.7525 456.88 95.023C456.628 98.2935 458.266 98.5575 459.22 98.2815C460.168 97.9994 459.472 95.143 459.472 94.873C459.46 93.5107 459.178 91.8725 459.166 89.1481C459.148 86.4237 460.234 84.7854 461.314 83.8253C461.861 83.4112 462.401 83.1352 462.947 82.7211C465.659 80.6628 467.958 77.7883 469.716 75.0519C469.59 77.0982 469.242 87.4558 475.507 87.4198C480.301 87.3958 487.484 82.5051 494.284 73.6717C497.158 69.9331 499.954 65.4985 502.475 60.4277C502.607 60.1516 502.331 59.7436 502.061 59.7436ZM472.5 61.6879C471.426 64.5503 472.38 64.9584 467.922 70.7073L469.272 69.063C469.002 69.4711 468.594 69.8851 468.324 70.4312C465.485 74.1278 461.825 77.8243 458.554 77.4343C458.554 77.4343 454.323 76.2341 466.757 57.7633C467.837 56.2631 468.786 54.8948 469.728 53.6587C470.406 52.9746 471.762 51.8764 472.722 52.8245C473.136 53.2326 473.274 54.1867 473.286 56.095C473.16 58.1353 473.712 58.9515 472.5 61.6879ZM474.547 61.9459C474.402 60.7217 474.132 61.2678 474.523 57.7213C475.183 53.6286 474.907 52.8125 475.033 51.8584C475.561 48.3118 476.911 46.3975 480.721 45.1494C481.952 45.5514 482.366 46.9136 481.964 48.6839C481.7 49.368 481.298 50.8682 479.947 53.3286C478.735 55.3809 476.845 58.5254 474.547 61.9459Z" fill="#1D1F2B"/>
<path d="M530.985 67.3527C535.96 55.3329 545.843 43.2831 549.09 39.9946C549.498 39.7185 549.222 39.0404 548.814 39.0404L538.456 39.1004C537.64 39.1064 536.824 39.5205 536.146 40.2046C535.468 40.8887 534.52 41.8488 533.301 43.2171C533.289 41.0387 532.455 38.1823 529.041 36.7001C523.442 34.1437 508.356 41.1767 499.054 59.2155C499.054 59.2155 498.478 60.3077 497.716 62.0479C497.716 62.0479 497.716 62.0479 497.71 62.0599C496.48 64.8744 494.782 69.3691 494.284 73.6657C493.683 78.8145 494.818 83.6632 500.56 84.9654C507.246 86.4237 512.94 80.6688 516.589 75.0639C515.659 79.2946 514.183 83.7953 512.298 88.0319C498.118 86.8857 489.867 96.7452 489.867 96.7452C482.012 106.053 486.272 112.432 489.963 114.322C502.949 120.923 513.762 105.465 517.807 98.4915C523.004 101.054 528.471 104.018 535.426 105.069C545.831 106.587 548.508 101.672 549.06 97.6574C549.222 96.4632 549.192 95.347 549.126 94.5009C549.126 94.0928 548.442 93.8228 548.172 94.2369C547.878 94.5009 547.542 94.7229 547.17 94.897C543.275 96.7932 535.18 94.3269 521.852 90.2943C525.488 82.5051 528.033 74.9979 528.975 72.5375C529.779 70.2212 530.985 67.3527 530.985 67.3527ZM491.577 110.361C486.65 106.983 493.971 99.7217 493.971 99.7217C498.442 95.335 504.431 94.2068 508.794 95.137C505.691 100.334 497.05 114.148 491.577 110.361ZM517.765 66.8787C517.093 67.8388 516.277 69.069 515.335 70.1672C512.628 73.8577 508.968 77.5603 505.559 77.1702C505.559 77.1702 501.329 75.9641 513.763 57.6373C524.438 41.7708 530.307 43.2351 528.975 48.4198C528.843 49.104 528.303 50.6042 526.953 53.0646C525.2 56.071 521.69 61.6819 517.765 66.8787Z" fill="#1D1F2B"/>
<path d="M580.811 59.2995L578.77 59.3115C578.356 59.3175 577.816 59.5876 577.546 60.0016C577.516 60.0496 577.486 60.0976 577.456 60.1516C576.124 62.216 572.037 68.1809 567.939 72.5915C567.939 72.5915 563.882 77.2483 558.853 79.5946C558.577 79.5946 557.353 79.6006 557.209 78.6465C556.933 77.4223 557.431 69.6511 557.419 67.7488C557.413 65.8405 557.803 63.1101 559.568 61.8739C574.534 57.7033 575.014 45.5694 575.014 45.5694C575.014 45.5694 575.788 38.3443 570.735 36.328C564.998 34.0477 550.05 40.9427 540.749 58.9815C540.749 58.9815 527.805 83.5852 544.727 87.8519C544.727 87.8519 544.859 87.8459 544.997 87.8459C546.228 88.2479 546.642 88.794 547.464 89.8802C548.7 91.3684 547.746 91.9205 547.218 94.6509C547.2 94.7349 547.182 94.819 547.17 94.897C546.654 97.7054 548.13 97.8974 549.06 97.6574C549.09 97.6574 549.12 97.6394 549.144 97.6334C550.092 97.3573 549.948 95.317 549.942 95.041C549.936 93.5408 550.074 93.5408 549.924 91.3624C549.912 89.3161 551.952 88.2179 553.039 87.8039C554.263 87.5218 555.487 87.2458 556.849 86.8257C560.894 85.2835 565.4 82.325 569.817 77.1883C570.153 76.7982 570.483 76.3961 570.819 75.9821C571.017 75.736 571.215 75.49 571.413 75.244C573.724 72.3215 576.13 69.045 578.356 65.3004C579.359 63.6262 580.319 61.8559 581.225 59.9776C581.357 59.7076 581.219 59.2995 580.811 59.2995ZM556.459 66.2546C555.931 69.3871 555.841 77.9744 555.715 78.7905C555.577 79.4746 554.767 80.5668 553.819 80.8488C552.456 80.9928 551.088 80.7288 549.726 80.0507C546.99 78.7065 547.242 74.8899 548.58 70.7913C549.384 68.1989 550.734 65.4685 551.946 63.1461C552.901 63.0021 553.717 62.9961 554.533 62.8581C554.533 62.8581 556.849 63.1161 556.459 66.2546ZM555.859 56.7191C564.242 44.5433 569.547 43.151 570.651 45.7314C570.651 45.7314 572.445 49.8121 563.21 55.0389C561.578 55.867 558.583 56.7011 555.859 56.7191Z" fill="#1D1F2B"/>
<path d="M601.586 70.4972C598.303 69.285 594.895 68.895 592.032 68.775C591.6 64.2803 590.76 60.3377 590.76 60.3377C588.936 50.6702 595.729 47.3637 597.901 45.9895C598.309 45.7134 598.579 45.1674 598.441 44.7593C598.021 43.5351 597.337 42.4489 596.515 41.6328C593.359 38.2423 587.91 38.5483 584.249 41.8428C577.882 47.7898 577.066 55.1589 577.456 60.1516C577.636 62.57 578.104 64.4303 578.356 65.3004C578.464 65.6605 578.53 65.8525 578.53 65.8525C578.944 67.3527 579.359 68.715 579.647 70.6173C575.806 71.8354 573.184 73.4677 571.413 75.244C570.777 75.8801 570.249 76.5282 569.817 77.1883C568.959 78.4785 568.437 79.7927 568.119 81.0408C568.119 81.0408 566.925 85.8176 570.483 88.932C573.496 91.7765 577.858 91.6145 577.858 91.6145C584.945 92.1185 590.502 86.6337 591.834 81.1789C592.633 78.0404 592.621 75.586 592.471 73.2697C594.787 73.1196 596.827 73.3837 598.604 73.6477C599.42 73.9118 600.374 73.4977 601.052 72.8136L601.862 71.7214C602.132 71.3074 601.994 70.7673 601.586 70.4972ZM572.638 84.8274C570.987 81.5689 572.878 78.6945 580.223 76.0661C580.253 81.791 578.776 85.3375 572.638 84.8274Z" fill="#1D1F2B"/>
<path d="M382.252 64.1183C382.294 65.4805 382.048 66.8607 381.502 68.1629L380.734 69.9932L365.186 106.965C364.628 108.279 363.8 109.437 362.773 110.367C362.617 110.505 362.461 110.643 362.299 110.769C362.251 110.805 362.203 110.847 362.155 110.877C362.095 110.925 362.035 110.973 361.975 111.015C361.927 111.051 361.873 111.093 361.819 111.129C361.705 111.207 361.585 111.285 361.465 111.357C361.393 111.411 361.315 111.459 361.237 111.502C361.153 111.556 361.069 111.598 360.985 111.646C360.949 111.67 360.907 111.694 360.865 111.712C360.823 111.736 360.787 111.76 360.745 111.778C360.697 111.808 360.649 111.832 360.595 111.85C360.547 111.874 360.499 111.898 360.451 111.922C360.439 111.934 360.427 111.94 360.409 111.94C360.349 111.976 360.289 112 360.229 112.024C360.199 112.042 360.163 112.06 360.127 112.072C360.097 112.084 360.073 112.096 360.043 112.108C359.977 112.138 359.911 112.162 359.845 112.186C359.821 112.198 359.791 112.21 359.767 112.216C359.671 112.258 359.575 112.294 359.479 112.318C359.479 112.33 359.461 112.33 359.449 112.33C359.389 112.36 359.329 112.378 359.263 112.396C359.083 112.456 358.897 112.51 358.711 112.558C358.675 112.57 358.633 112.582 358.597 112.588C358.591 112.588 358.585 112.588 358.585 112.594C358.573 112.594 358.555 112.594 358.537 112.606C358.339 112.648 358.141 112.69 357.937 112.726L320.137 119.255C319.999 119.279 319.861 119.297 319.729 119.315C319.585 119.327 319.441 119.345 319.291 119.357C319.207 119.369 319.117 119.375 319.027 119.375C318.865 119.387 318.709 119.393 318.547 119.393C318.385 119.393 318.235 119.387 318.073 119.381C317.983 119.381 317.893 119.375 317.803 119.369C317.773 119.363 317.737 119.363 317.701 119.357C317.329 119.333 316.962 119.279 316.602 119.201C316.476 119.177 316.356 119.147 316.23 119.117C316.104 119.087 315.984 119.057 315.858 119.021C315.246 118.853 314.652 118.619 314.088 118.325C313.788 118.169 313.494 118 313.212 117.814H313.206C312.984 117.664 312.768 117.514 312.564 117.346C312.402 117.226 312.246 117.094 312.096 116.956C312.03 116.896 311.958 116.836 311.892 116.77C311.826 116.71 311.76 116.644 311.694 116.584C311.55 116.434 311.406 116.284 311.268 116.128L302.578 106.281L291.597 93.8348L290.78 92.9047L280.747 81.5389C278.377 78.8565 277.692 75.0879 278.959 71.7454L281.845 64.1303L285.476 54.5528L292.869 35.0498C293.979 32.1214 296.451 29.913 299.488 29.1329L339.226 18.9193C340.018 18.7153 340.828 18.6133 341.626 18.6133C343.535 18.6133 345.401 19.1834 346.985 20.2395C347.273 20.4376 347.549 20.6416 347.819 20.8696C348.221 21.2057 348.599 21.5778 348.947 21.9858L370.827 47.5197L374.865 52.2364L379.936 58.1533C380.128 58.3754 380.308 58.6034 380.476 58.8434C380.542 58.9395 380.608 59.0295 380.662 59.1255C381.652 60.6257 382.192 62.354 382.246 64.1123L382.252 64.1183Z" fill="#FFE188"/>
<path d="M302.578 106.281H302.572L311.268 116.128L302.578 106.281ZM346.985 20.2395C347.273 20.4316 347.549 20.6416 347.819 20.8696C347.549 20.6416 347.273 20.4376 346.985 20.2395Z" fill="white"/>
<path d="M382.252 64.1183C382.294 65.4805 382.048 66.8607 381.502 68.1629L380.734 69.9932L365.186 106.965C364.628 108.279 363.8 109.437 362.773 110.367C362.617 110.505 362.461 110.643 362.299 110.769C362.251 110.805 362.203 110.847 362.155 110.877C362.095 110.925 362.035 110.973 361.975 111.015C361.927 111.051 361.873 111.087 361.819 111.123C361.705 111.207 361.585 111.285 361.465 111.357C361.393 111.411 361.315 111.459 361.237 111.501C361.153 111.556 361.069 111.598 360.985 111.646C360.949 111.67 360.907 111.694 360.865 111.712C360.823 111.736 360.787 111.76 360.745 111.778C360.697 111.808 360.649 111.832 360.595 111.85C360.547 111.874 360.499 111.898 360.451 111.922C360.439 111.934 360.427 111.94 360.409 111.94C360.349 111.976 360.289 112 360.229 112.024C360.217 112.036 360.199 112.042 360.181 112.042C360.067 112.096 359.959 112.144 359.845 112.186C359.821 112.198 359.791 112.21 359.767 112.216C359.671 112.258 359.575 112.294 359.479 112.318C359.479 112.33 359.461 112.33 359.449 112.33C359.389 112.36 359.329 112.378 359.263 112.396C359.083 112.456 358.897 112.51 358.711 112.558C358.675 112.57 358.633 112.582 358.597 112.588C358.591 112.588 358.585 112.588 358.585 112.594C358.567 112.594 358.555 112.594 358.537 112.594C358.339 112.642 358.141 112.684 357.937 112.72L320.137 119.243C319.999 119.267 319.867 119.285 319.729 119.309C319.585 119.321 319.441 119.339 319.291 119.351C319.207 119.363 319.117 119.369 319.027 119.369C318.865 119.381 318.709 119.387 318.547 119.387C318.385 119.387 318.235 119.381 318.073 119.375C317.983 119.375 317.893 119.369 317.803 119.363C317.773 119.357 317.737 119.357 317.701 119.351C317.329 119.327 316.962 119.273 316.602 119.195C316.476 119.171 316.356 119.141 316.23 119.111C316.104 119.081 315.984 119.051 315.858 119.015C315.246 118.847 314.652 118.613 314.088 118.319C313.788 118.163 313.494 117.994 313.212 117.808H313.206C312.984 117.658 312.768 117.508 312.564 117.34C312.402 117.22 312.246 117.088 312.096 116.95C312.03 116.89 311.958 116.83 311.892 116.764C311.826 116.704 311.76 116.638 311.694 116.578C311.55 116.428 311.406 116.278 311.268 116.122L302.572 106.275H302.578L347.027 96.0911C347.849 95.9051 348.641 95.6111 349.379 95.215C349.457 95.179 349.529 95.137 349.601 95.095C349.842 94.963 350.07 94.819 350.298 94.6629C350.37 94.6149 350.448 94.5609 350.52 94.5069C350.682 94.3929 350.838 94.2669 350.994 94.1409C351.09 94.0628 351.192 93.9848 351.282 93.8888C351.3 93.8768 351.324 93.8588 351.342 93.8408C352.422 92.8687 353.28 91.6445 353.832 90.2583L363.5 65.9365L365.576 60.7157L366.218 59.1015L370.827 47.5137L374.865 52.2304L379.936 58.1473C380.128 58.3694 380.308 58.5974 380.476 58.8374C380.542 58.9335 380.608 59.0235 380.662 59.1195C381.652 60.6197 382.192 62.348 382.246 64.1063L382.252 64.1183Z" fill="#FFC666"/>
<path d="M362.773 110.367C362.617 110.505 362.461 110.643 362.299 110.769C362.251 110.805 362.203 110.847 362.155 110.877C362.095 110.925 362.035 110.973 361.975 111.015C361.927 111.051 361.873 111.087 361.819 111.123C361.705 111.207 361.585 111.285 361.465 111.357C361.393 111.411 361.315 111.459 361.237 111.502C361.153 111.556 361.069 111.598 360.985 111.646C360.949 111.67 360.907 111.694 360.865 111.712C360.823 111.736 360.787 111.76 360.745 111.778C360.697 111.808 360.649 111.832 360.595 111.85C360.547 111.874 360.499 111.898 360.451 111.922C360.439 111.934 360.427 111.94 360.409 111.94C360.349 111.976 360.289 112 360.229 112.024C360.217 112.036 360.199 112.042 360.181 112.042C360.139 112.072 360.091 112.09 360.043 112.108C359.977 112.138 359.911 112.162 359.845 112.186C359.821 112.198 359.791 112.21 359.767 112.216C359.671 112.258 359.575 112.294 359.479 112.318C359.479 112.33 359.461 112.33 359.449 112.33C359.389 112.36 359.329 112.378 359.263 112.396C359.083 112.456 358.897 112.51 358.711 112.558C358.675 112.57 358.633 112.582 358.597 112.588C358.591 112.588 358.585 112.588 358.585 112.594C358.567 112.594 358.555 112.594 358.537 112.594C358.339 112.642 358.141 112.684 357.937 112.72L320.137 119.243C319.999 119.267 319.867 119.285 319.729 119.309C319.585 119.321 319.441 119.339 319.291 119.351C319.207 119.363 319.117 119.369 319.027 119.369C318.865 119.381 318.709 119.387 318.547 119.387C318.385 119.387 318.235 119.381 318.073 119.375C317.983 119.375 317.893 119.369 317.803 119.363C317.773 119.357 317.737 119.357 317.701 119.351C317.329 119.327 316.962 119.273 316.602 119.195C316.476 119.171 316.356 119.141 316.23 119.111C316.104 119.081 315.984 119.051 315.858 119.015C315.246 118.847 314.652 118.613 314.088 118.319C313.788 118.163 313.494 117.994 313.212 117.808H313.206C312.984 117.658 312.768 117.508 312.564 117.34C312.402 117.22 312.246 117.088 312.096 116.95C312.03 116.89 311.958 116.83 311.892 116.764C311.826 116.704 311.76 116.638 311.694 116.578C311.55 116.428 311.406 116.278 311.268 116.122L302.572 106.275H302.578L347.027 96.0911C347.849 95.9051 348.641 95.6111 349.379 95.215C349.457 95.179 349.529 95.137 349.601 95.095C349.842 94.963 350.07 94.819 350.298 94.6629C350.37 94.6149 350.448 94.5609 350.52 94.5069C350.682 94.3929 350.838 94.2669 350.994 94.1409C351.09 94.0628 351.186 93.9788 351.282 93.8888C351.3 93.8768 351.324 93.8588 351.342 93.8408L362.773 110.361V110.367Z" fill="#FFBC66"/>
<path d="M340.822 58.1473L289.028 1.70871C287.018 -0.475625 283.591 -0.529633 281.515 1.59469C279.553 3.605 279.553 6.80949 281.515 8.8198L334.743 63.4101L340.828 58.1473H340.822Z" fill="url(#paint0_linear_201_429)"/>
<path opacity="0.35" d="M339.04 57.5472L287.24 1.10862C286.862 0.694559 286.43 0.358508 285.968 0.0944672C287.102 0.262493 288.188 0.796575 289.028 1.70871L340.828 58.1473L334.743 63.4101L333.609 62.246L339.046 57.5472H339.04Z" fill="#FFF1B6"/>
<path opacity="0.18" d="M281.515 1.59469C281.611 1.49268 281.713 1.40866 281.815 1.31865C281.497 7.38558 325.982 51.4203 336.141 62.192L334.731 63.4101L281.509 8.8198C279.547 6.80949 279.553 3.605 281.509 1.59469H281.515Z" fill="#492B17"/>
<path d="M312.06 63.5302C312.486 63.9802 319.099 58.4654 326.84 51.2103C334.581 43.9552 340.51 37.7022 340.084 37.2521C339.658 36.8021 333.045 42.3169 325.304 49.572C317.563 56.8271 311.634 63.0741 312.06 63.5302Z" fill="url(#paint1_linear_201_429)"/>
<path d="M324.95 70.5992C325.376 71.0493 330.669 67.1127 336.561 61.5799C342.46 56.053 346.733 50.7902 346.313 50.3341C345.887 49.8841 340.93 54.4148 335.031 59.9416C329.132 65.4745 324.53 70.1432 324.95 70.5932V70.5992Z" fill="url(#paint2_linear_201_429)"/>
<path d="M304.553 52.8185C304.937 53.2266 311.076 48.4138 318.061 41.8608C325.052 35.3078 330.41 29.661 330.026 29.2589C329.648 28.8509 323.671 33.8376 316.68 40.3906C309.689 46.9436 304.168 52.4105 304.547 52.8185H304.553Z" fill="url(#paint3_linear_201_429)"/>
<path d="M307.817 30.9272C311.346 27.6207 315.198 26.0004 316.428 27.3086L318.331 29.3369C319.555 30.6451 317.695 34.3897 314.166 37.6962C310.638 41.0027 306.785 42.623 305.555 41.3148L303.652 39.2865C302.428 37.9783 304.289 34.2337 307.817 30.9272Z" fill="url(#paint4_linear_201_429)"/>
<path d="M312.66 60.1336C320.839 68.853 332.523 70.5512 339.148 64.3403C345.773 58.1293 344.933 46.4696 336.651 37.6362C328.07 28.4848 318.763 29.3189 312.138 35.5299C305.513 41.7408 304.084 50.9822 312.666 60.1276L312.66 60.1336Z" fill="url(#paint5_linear_201_429)"/>
<path d="M303.55 48.7199C310.62 41.3028 318.145 34.3417 326.078 27.8547C320.095 26.6305 314.4 28.7308 309.797 33.0455C305.261 37.3002 302.8 42.767 303.55 48.7199Z" fill="url(#paint6_linear_201_429)"/>
<path opacity="0.35" d="M318.511 28.0527C320.935 27.4226 323.479 27.3206 326.078 27.8547C325.454 28.3648 324.842 28.8809 324.224 29.3969C322.375 28.7428 320.443 28.2868 318.511 28.0527Z" fill="#FFF1B6"/>
<path d="M309.551 60.9318C318.751 51.9424 328.094 43.2111 337.696 34.6297C335.181 32.1274 332.625 30.3331 330.08 29.1809C321.019 36.436 312.486 44.3452 304.553 52.8185C305.531 55.4829 307.163 58.2073 309.551 60.9318Z" fill="url(#paint7_linear_201_429)"/>
<path opacity="0.35" d="M331.629 33.4356C330.507 32.5234 329.228 31.7073 327.866 30.9872C328.604 30.3811 329.336 29.775 330.08 29.1809C332.619 30.3391 335.181 32.1274 337.696 34.6297C336.915 35.3258 336.147 36.034 335.367 36.7301C334.161 35.5479 332.877 34.4437 331.629 33.4356Z" fill="#FFF1B6"/>
<path d="M312.012 63.4822C314.76 66.0505 317.779 67.9828 320.863 69.273C329.87 62.468 337.93 54.7508 345.137 46.0015C344.045 43.013 342.358 40.0366 340.078 37.2521C330.507 45.8095 321.187 54.5168 312.012 63.4822Z" fill="url(#paint8_linear_201_429)"/>
<path opacity="0.35" d="M339.85 42.4309C339.268 41.3568 338.56 40.3246 337.768 39.3465C338.542 38.6504 339.304 37.9483 340.084 37.2521C342.364 40.0426 344.051 43.019 345.143 46.0015C344.255 47.0756 343.354 48.1378 342.442 49.182C341.692 46.8776 341.002 44.5553 339.85 42.4249V42.4309Z" fill="#FFF1B6"/>
<path d="M324.95 70.5992C331.137 72.0335 337.204 70.8273 341.47 66.8187C345.851 62.714 347.447 56.5811 346.277 50.1601C339.838 57.7153 332.745 64.5083 324.944 70.5992H324.95Z" fill="url(#paint9_linear_201_429)"/>
<path opacity="0.35" d="M343.438 62.666C344.117 59.3655 343.889 56.107 344.003 52.7705C344.771 51.9124 345.533 51.0423 346.283 50.1661C347.351 56.023 346.109 61.6279 342.562 65.6845C342.922 64.7063 343.222 63.7042 343.438 62.666Z" fill="#FFF1B6"/>
<path opacity="0.21" d="M284.347 1.88874C283.057 1.73871 284.083 4.61915 286.976 7.81764C289.868 11.0161 306.131 30.2431 307.877 28.6048C308.717 27.8127 286.988 2.20079 284.347 1.89474V1.88874Z" fill="#FFF1B6"/>
<path opacity="0.84" d="M309.797 33.0455C312.636 30.087 322.057 37.9603 324.428 41.0327C326.792 44.1052 330.194 55.2669 337.054 53.3766C343.913 51.4803 346.073 47.6337 347.729 52.8365C349.385 58.0453 343.553 65.6785 344.903 86.7417C344.903 86.7417 345.563 119.867 345.563 124.596C345.563 129.324 368.516 129.624 368.75 134.119C368.99 138.614 316.932 139.502 319.771 135.007C322.609 130.512 342.01 127.434 342.484 113.95C342.796 105.129 342.7 98.0234 342.598 94.1708C342.172 94.3869 341.668 94.5549 341.068 94.6689C334.797 95.8511 335.625 84.4974 335.037 78.9345C334.443 73.3777 330.188 73.2577 325.808 72.3095C321.433 71.3614 309.437 67.0167 306.053 60.7157C298.042 45.8095 306.953 36.004 309.791 33.0515L309.797 33.0455Z" fill="url(#paint10_linear_201_429)"/>
<path d="M320.005 134.707C320.005 134.707 320.053 134.737 320.083 134.743C324.842 136.525 332.097 137.84 349.331 136.957C353.832 136.729 364.688 137.101 367.376 132.409C368.216 132.907 368.726 133.471 368.762 134.119C369.002 138.614 316.944 139.502 319.783 135.007C319.849 134.905 319.927 134.809 320.005 134.707Z" fill="url(#paint11_linear_201_429)"/>
<path opacity="0.57" d="M360.049 130.746C357.727 130.638 355.398 130.62 353.07 130.584C350.79 130.542 348.509 130.482 346.229 130.344C344.615 130.248 339.958 130.422 338.968 128.874C337.972 127.314 341.956 126.678 342.91 126.126C344.009 125.496 344.639 124.577 345.149 123.437C345.299 123.101 345.431 122.759 345.551 122.405C345.563 123.371 345.569 124.121 345.569 124.589C345.569 127.974 357.319 129.09 364.088 131.094C362.737 131.004 361.393 130.8 360.043 130.74L360.049 130.746Z" fill="url(#paint12_linear_201_429)"/>
<path opacity="0.35" d="M307.967 62.666C312.21 65.9785 318.319 66.6386 323.497 67.2507C326.336 67.5868 329.3 67.5808 332.025 68.5469C334.971 69.5971 336.075 71.8414 336.051 74.8599C336.039 76.2881 335.493 78.1004 335.127 79.9067C335.103 79.5646 335.073 79.2406 335.043 78.9285C334.449 73.3717 330.194 73.2516 325.814 72.3035C321.529 71.3794 309.959 67.1967 306.293 61.1118C306.803 61.6639 307.355 62.186 307.967 62.666Z" fill="url(#paint13_linear_201_429)"/>
<path d="M335.631 86.8857C335.631 86.8857 335.841 93.6968 339.25 94.6269C340.81 95.053 343.649 94.2248 343.649 92.6526C343.649 92.6526 341.314 94.1288 339.64 93.4507C337.216 92.4726 335.631 86.8857 335.631 86.8857Z" fill="url(#paint14_linear_201_429)"/>
<path d="M336.273 83.0752C336.297 84.9594 336.489 86.8917 337.258 88.632C337.87 90.0122 339.544 92.4846 341.266 91.6325C343.156 90.7023 339.172 83.2132 338.644 81.4669C337.756 78.5385 337.618 75.9041 337.354 76.5522C336.513 78.6165 336.255 80.8548 336.279 83.0691L336.273 83.0752Z" fill="url(#paint15_linear_201_429)"/>
<path d="M334.203 54.6368C337.918 54.6848 342.28 54.7868 344.849 51.9724C345.575 51.1803 346.847 51.9904 347.099 52.7345C347.741 54.6308 346.175 56.2871 344.567 56.9772C342.676 57.7873 340.264 57.4452 338.338 56.8031C336.051 56.041 333.579 54.6248 334.209 54.6368H334.203Z" fill="url(#paint16_linear_201_429)"/>
<path d="M329.276 131.293C331.707 130.47 333.537 129.564 335.991 127.656C337.432 126.534 334.779 130.542 332.079 132.475C329.444 134.359 322.993 137.215 321.871 134.989C321.067 133.399 328.4 131.593 329.282 131.299L329.276 131.293Z" fill="url(#paint17_linear_201_429)"/>
<path d="M353.472 135.157C357.433 134.779 364.214 133.555 366.158 132.877C367.154 132.529 367.58 134.107 366.59 134.455C364.628 135.145 362.575 135.451 360.523 135.709C358.357 135.979 356.19 136.219 354.018 136.399C349.667 136.765 345.287 136.879 340.936 136.525C339.898 136.441 349.217 135.565 353.472 135.157Z" fill="url(#paint18_linear_201_429)"/>
</g>
<defs>
<linearGradient id="paint0_linear_201_429" x1="304.582" y1="55.9204" x2="316.082" y2="6.6572" gradientUnits="userSpaceOnUse">
<stop stop-color="#DD9A68"/>
<stop offset="0.25" stop-color="#D99561"/>
<stop offset="0.6" stop-color="#CE884E"/>
<stop offset="1" stop-color="#BF7532"/>
</linearGradient>
<linearGradient id="paint1_linear_201_429" x1="326.712" y1="50.5855" x2="325.177" y2="48.9484" gradientUnits="userSpaceOnUse">
<stop stop-color="#DD9A68"/>
<stop offset="0.25" stop-color="#D99561"/>
<stop offset="0.6" stop-color="#CE884E"/>
<stop offset="1" stop-color="#BF7532"/>
</linearGradient>
<linearGradient id="paint2_linear_201_429" x1="336.502" y1="60.9023" x2="334.966" y2="59.2652" gradientUnits="userSpaceOnUse">
<stop stop-color="#DD9A68"/>
<stop offset="0.25" stop-color="#D99561"/>
<stop offset="0.6" stop-color="#CE884E"/>
<stop offset="1" stop-color="#BF7532"/>
</linearGradient>
<linearGradient id="paint3_linear_201_429" x1="317.94" y1="41.2311" x2="316.565" y2="39.7647" gradientUnits="userSpaceOnUse">
<stop stop-color="#DD9A68"/>
<stop offset="0.25" stop-color="#D99561"/>
<stop offset="0.6" stop-color="#CE884E"/>
<stop offset="1" stop-color="#BF7532"/>
</linearGradient>
<linearGradient id="paint4_linear_201_429" x1="314.036" y1="37.0683" x2="307.69" y2="30.3009" gradientUnits="userSpaceOnUse">
<stop stop-color="#DD9A68"/>
<stop offset="0.25" stop-color="#D99561"/>
<stop offset="0.6" stop-color="#CE884E"/>
<stop offset="1" stop-color="#BF7532"/>
</linearGradient>
<linearGradient id="paint5_linear_201_429" x1="339.022" y1="63.7132" x2="312.008" y2="34.9059" gradientUnits="userSpaceOnUse">
<stop stop-color="#DD9A68"/>
<stop offset="0.25" stop-color="#D99561"/>
<stop offset="0.6" stop-color="#CE884E"/>
<stop offset="1" stop-color="#BF7532"/>
</linearGradient>
<linearGradient id="paint6_linear_201_429" x1="314.758" y1="37.7325" x2="309.729" y2="32.3702" gradientUnits="userSpaceOnUse">
<stop stop-color="#EAAF88"/>
<stop offset="0.3" stop-color="#EAAC81"/>
<stop offset="0.74" stop-color="#EAA66E"/>
<stop offset="1" stop-color="#EAA260"/>
</linearGradient>
<linearGradient id="paint7_linear_201_429" x1="323.523" y1="47.1758" x2="316.737" y2="39.9401" gradientUnits="userSpaceOnUse">
<stop stop-color="#EAAF88"/>
<stop offset="0.3" stop-color="#EAAC81"/>
<stop offset="0.74" stop-color="#EAA66E"/>
<stop offset="1" stop-color="#EAA260"/>
</linearGradient>
<linearGradient id="paint8_linear_201_429" x1="333.489" y1="57.8125" x2="325.776" y2="49.5875" gradientUnits="userSpaceOnUse">
<stop stop-color="#EAAF88"/>
<stop offset="0.3" stop-color="#EAAC81"/>
<stop offset="0.74" stop-color="#EAA66E"/>
<stop offset="1" stop-color="#EAA260"/>
</linearGradient>
<linearGradient id="paint9_linear_201_429" x1="341.446" y1="66.1048" x2="335.383" y2="59.6395" gradientUnits="userSpaceOnUse">
<stop stop-color="#EAAF88"/>
<stop offset="0.3" stop-color="#EAAC81"/>
<stop offset="0.74" stop-color="#EAA66E"/>
<stop offset="1" stop-color="#EAA260"/>
</linearGradient>
<linearGradient id="paint10_linear_201_429" x1="335.781" y1="137.966" x2="335.781" y2="32.3914" gradientUnits="userSpaceOnUse">
<stop stop-color="#FC9706"/>
<stop offset="0.49" stop-color="#FDAA04" stop-opacity="0.84"/>
<stop offset="1" stop-color="#FFBC04" stop-opacity="0.7"/>
</linearGradient>
<linearGradient id="paint11_linear_201_429" x1="344.219" y1="137.966" x2="344.219" y2="32.3974" gradientUnits="userSpaceOnUse">
<stop stop-color="#FC9815"/>
<stop offset="0.02" stop-color="#FC9814"/>
<stop offset="1" stop-color="#FFBC04"/>
</linearGradient>
<linearGradient id="paint12_linear_201_429" x1="351.45" y1="137.966" x2="351.45" y2="32.3974" gradientUnits="userSpaceOnUse">
<stop stop-color="#FC9815"/>
<stop offset="1" stop-color="#EB7D14"/>
</linearGradient>
<linearGradient id="paint13_linear_201_429" x1="321.175" y1="137.972" x2="321.175" y2="32.6614" gradientUnits="userSpaceOnUse">
<stop stop-color="#FC9815"/>
<stop offset="1" stop-color="#EB7D14"/>
</linearGradient>
<linearGradient id="paint14_linear_201_429" x1="343.655" y1="90.8103" x2="335.631" y2="90.8103" gradientUnits="userSpaceOnUse">
<stop stop-color="#FC9815"/>
<stop offset="0.02" stop-color="#FC9814"/>
<stop offset="1" stop-color="#FFBC04"/>
</linearGradient>
<linearGradient id="paint15_linear_201_429" x1="341.77" y1="84.1373" x2="336.267" y2="84.1373" gradientUnits="userSpaceOnUse">
<stop stop-color="#F9E77C" stop-opacity="0"/>
<stop offset="0.01" stop-color="#F9E77E" stop-opacity="0.02"/>
<stop offset="0.3" stop-color="#FBEFAB" stop-opacity="0.36"/>
<stop offset="0.55" stop-color="#FCF6CF" stop-opacity="0.63"/>
<stop offset="0.76" stop-color="#FDFAE9" stop-opacity="0.83"/>
<stop offset="0.91" stop-color="#FEFDF9" stop-opacity="0.95"/>
<stop offset="1" stop-color="white"/>
</linearGradient>
<linearGradient id="paint16_linear_201_429" x1="347.243" y1="54.5528" x2="334.101" y2="54.5528" gradientUnits="userSpaceOnUse">
<stop stop-color="white"/>
<stop offset="0.09" stop-color="#FEFDF9" stop-opacity="0.95"/>
<stop offset="0.24" stop-color="#FDFAE9" stop-opacity="0.83"/>
<stop offset="0.45" stop-color="#FCF6CF" stop-opacity="0.63"/>
<stop offset="0.7" stop-color="#FBEFAB" stop-opacity="0.36"/>
<stop offset="0.99" stop-color="#F9E77E" stop-opacity="0.02"/>
<stop offset="1" stop-color="#F9E77C" stop-opacity="0"/>
</linearGradient>
<linearGradient id="paint17_linear_201_429" x1="336.393" y1="131.629" x2="321.805" y2="131.629" gradientUnits="userSpaceOnUse">
<stop stop-color="#F9E77C" stop-opacity="0"/>
<stop offset="0.01" stop-color="#F9E77E" stop-opacity="0.02"/>
<stop offset="0.3" stop-color="#FBEFAB" stop-opacity="0.36"/>
<stop offset="0.55" stop-color="#FCF6CF" stop-opacity="0.63"/>
<stop offset="0.76" stop-color="#FDFAE9" stop-opacity="0.83"/>
<stop offset="0.91" stop-color="#FEFDF9" stop-opacity="0.95"/>
<stop offset="1" stop-color="white"/>
</linearGradient>
<linearGradient id="paint18_linear_201_429" x1="367.148" y1="134.779" x2="340.852" y2="134.779" gradientUnits="userSpaceOnUse">
<stop stop-color="white"/>
<stop offset="0.09" stop-color="#FEFDF9" stop-opacity="0.95"/>
<stop offset="0.24" stop-color="#FDFAE9" stop-opacity="0.83"/>
<stop offset="0.45" stop-color="#FCF6CF" stop-opacity="0.63"/>
<stop offset="0.7" stop-color="#FBEFAB" stop-opacity="0.36"/>
<stop offset="0.99" stop-color="#F9E77E" stop-opacity="0.02"/>
<stop offset="1" stop-color="#F9E77C" stop-opacity="0"/>
</linearGradient>
<clipPath id="clip0_201_429">
<rect width="602" height="137.931" fill="white" transform="translate(0 0.0344543)"/>
</clipPath>
</defs>
</svg>
