<svg width="24" height="24" viewBox="0 0 24 24" fill="none" xmlns="http://www.w3.org/2000/svg">
<path d="M21.5 10C21.5 10.2761 21.2761 10.5 21 10.5C20.7239 10.5 20.5 10.2761 20.5 10H21.5ZM12 18.5C12.2761 18.5 12.5 18.7239 12.5 19C12.5 19.2761 12.2761 19.5 12 19.5V18.5ZM18 5.5H6V4.5H18V5.5ZM3.5 8V16H2.5V8H3.5ZM6 5.5C4.61929 5.5 3.5 6.61929 3.5 8H2.5C2.5 6.067 4.067 4.5 6 4.5V5.5ZM20.5 8C20.5 6.61929 19.3807 5.5 18 5.5V4.5C19.933 4.5 21.5 6.067 21.5 8H20.5ZM6 19.5C4.067 19.5 2.5 17.933 2.5 16H3.5C3.5 17.3807 4.61929 18.5 6 18.5V19.5ZM20.5 10V8H21.5V10H20.5ZM6 18.5H12V19.5H6V18.5Z" fill="currentColor"/>
<path d="M7 9L12 13L17 9" stroke="currentColor" stroke-linecap="round"/>
<path d="M22 17C22 18.6569 20.6569 20 19 20C17.3431 20 16 18.6569 16 17C16 15.3431 17.3431 14 19 14C20.6569 14 22 15.3431 22 17Z" stroke="currentColor"/>
</svg>
