<svg width="24" height="24" viewBox="0 0 24 24" fill="none" xmlns="http://www.w3.org/2000/svg">
<path d="M20.5 10C20.5 10.2761 20.7239 10.5 21 10.5C21.2761 10.5 21.5 10.2761 21.5 10H20.5ZM12 19.5C12.2761 19.5 12.5 19.2761 12.5 19C12.5 18.7239 12.2761 18.5 12 18.5V19.5ZM18 4.5H6V5.5H18V4.5ZM2.5 8V16H3.5V8H2.5ZM6 4.5C4.067 4.5 2.5 6.067 2.5 8H3.5C3.5 6.61929 4.61929 5.5 6 5.5V4.5ZM21.5 8C21.5 6.067 19.933 4.5 18 4.5V5.5C19.3807 5.5 20.5 6.61929 20.5 8H21.5ZM6 18.5C4.61929 18.5 3.5 17.3807 3.5 16H2.5C2.5 17.933 4.067 19.5 6 19.5V18.5ZM21.5 10V8H20.5V10H21.5ZM6 19.5H12V18.5H6V19.5Z" fill="currentColor"/>
<path d="M7 9L12 13L17 9" stroke="currentColor" stroke-linecap="round"/>
<path d="M22 15L18.25 19L16 17.1818" stroke="currentColor" stroke-linecap="round" stroke-linejoin="round"/>
</svg>
