<svg width="32" height="32" viewBox="0 0 32 32" fill="none" xmlns="http://www.w3.org/2000/svg">
<path d="M15.7115 24.7362L6.46429 28.5892V5.14279C6.46429 4.3495 6.69965 3.85061 7.01805 3.54648C7.3423 3.23676 7.85058 3.03564 8.57144 3.03564H23.4286C24.1153 3.03564 24.6293 3.26127 24.9697 3.60169C25.3101 3.9421 25.5357 4.45608 25.5357 5.14279V28.5892L16.2885 24.7362C16.1039 24.6593 15.8962 24.6593 15.7115 24.7362Z" stroke="currentColor" stroke-width="1.5" stroke-linecap="round" stroke-linejoin="round"/>
<path d="M16 8L16.6789 7.6813C16.5553 7.41808 16.2908 7.25 16 7.25C15.7092 7.25 15.4446 7.41808 15.3211 7.6813L16 8ZM17.7657 11.7615L17.0868 12.0802C17.193 12.3063 17.4048 12.4648 17.6518 12.5027L17.7657 11.7615ZM21.7143 12.3683L22.2509 12.8923C22.4472 12.6912 22.5147 12.3972 22.4256 12.1307C22.3366 11.8641 22.106 11.6697 21.8282 11.627L21.7143 12.3683ZM18.8571 15.2946L18.3205 14.7706C18.1541 14.941 18.0786 15.1803 18.1169 15.4153L18.8571 15.2946ZM19.5314 19.4286L19.1685 20.0849C19.4198 20.2239 19.7285 20.2071 19.9633 20.0417C20.1981 19.8763 20.3179 19.5913 20.2716 19.3078L19.5314 19.4286ZM16 17.4757L16.3629 16.8194C16.1371 16.6945 15.8629 16.6945 15.637 16.8194L16 17.4757ZM12.4686 19.4286L11.7283 19.3078C11.6821 19.5913 11.8018 19.8763 12.0367 20.0417C12.2715 20.2071 12.5801 20.2239 12.8315 20.0849L12.4686 19.4286ZM13.1428 15.2946L13.8831 15.4153C13.9214 15.1803 13.8458 14.941 13.6795 14.7706L13.1428 15.2946ZM10.2857 12.3683L10.1718 11.627C9.894 11.6697 9.6634 11.8641 9.57435 12.1307C9.4853 12.3972 9.55274 12.6912 9.74908 12.8923L10.2857 12.3683ZM14.2343 11.7615L14.3482 12.5027C14.5952 12.4648 14.807 12.3063 14.9132 12.0802L14.2343 11.7615ZM15.3211 8.3187L17.0868 12.0802L18.4446 11.4428L16.6789 7.6813L15.3211 8.3187ZM17.6518 12.5027L21.6003 13.1096L21.8282 11.627L17.8796 11.0202L17.6518 12.5027ZM21.1776 11.8444L18.3205 14.7706L19.3938 15.8185L22.2509 12.8923L21.1776 11.8444ZM18.1169 15.4153L18.7912 19.5493L20.2716 19.3078L19.5974 15.1738L18.1169 15.4153ZM19.8944 18.7722L16.3629 16.8194L15.637 18.1321L19.1685 20.0849L19.8944 18.7722ZM15.637 16.8194L12.1056 18.7722L12.8315 20.0849L16.3629 18.1321L15.637 16.8194ZM13.2088 19.5493L13.8831 15.4153L12.4026 15.1738L11.7283 19.3078L13.2088 19.5493ZM13.6795 14.7706L10.8223 11.8444L9.74908 12.8923L12.6062 15.8185L13.6795 14.7706ZM10.3996 13.1096L14.3482 12.5027L14.1203 11.0202L10.1718 11.627L10.3996 13.1096ZM14.9132 12.0802L16.6789 8.3187L15.3211 7.6813L13.5554 11.4428L14.9132 12.0802Z" fill="currentColor"/>
</svg>
