<svg width="24" height="24" viewBox="0 0 24 24" fill="none" xmlns="http://www.w3.org/2000/svg">
<path d="M20.2678 3.73223L20.7981 3.2019V3.2019L20.2678 3.73223ZM6.50006 21.0355V21.7855C6.69897 21.7855 6.88974 21.7065 7.03039 21.5658L6.50006 21.0355ZM3.00006 21.0355H2.25006C2.25006 21.4497 2.58585 21.7855 3.00006 21.7855V21.0355ZM3.00006 17.4644L2.46973 16.9341C2.32908 17.0747 2.25006 17.2655 2.25006 17.4644H3.00006ZM17.2626 4.26256C17.946 3.57915 19.054 3.57915 19.7374 4.26256L20.7981 3.2019C19.5289 1.9327 17.4711 1.9327 16.2019 3.2019L17.2626 4.26256ZM19.7374 4.26256C20.4209 4.94598 20.4209 6.05402 19.7374 6.73744L20.7981 7.7981C22.0673 6.52889 22.0673 4.47111 20.7981 3.2019L19.7374 4.26256ZM19.7374 6.73744L5.96973 20.5051L7.03039 21.5658L20.7981 7.7981L19.7374 6.73744ZM6.50006 20.2855H3.00006V21.7855H6.50006V20.2855ZM16.2019 3.2019L2.46973 16.9341L3.53039 17.9947L17.2626 4.26256L16.2019 3.2019ZM2.25006 17.4644V21.0355H3.75006V17.4644H2.25006ZM14.7019 5.76256L18.2374 9.2981L19.2981 8.23744L15.7626 4.7019L14.7019 5.76256Z" fill="currentColor"/>
</svg>
