<svg width="24" height="24" viewBox="0 0 24 24" fill="none" xmlns="http://www.w3.org/2000/svg">
<path d="M12 2C6.47 2 2 6.5 2 12C2 17.5 6.5 22 12 22C17.5 22 22 17.5 22 12C22 6.5 17.5 2 12 2ZM16 15.44C16 15.78 15.78 16 15.44 16H8.56C8.22 16 8 15.78 8 15.44V15H16V15.44ZM16 14H8L7 8L10 10L12 7L14 10L17 8L16 14Z" fill="url(#paint0_linear_514:20107)"/>
<defs>
<linearGradient id="paint0_linear_514:20107" x1="21.1429" y1="22" x2="1.75683" y2="21.1007" gradientUnits="userSpaceOnUse">
<stop stop-color="#F0C175"/>
<stop offset="1" stop-color="#F7E0BA"/>
</linearGradient>
</defs>
</svg>
