<svg width="32" height="32" viewBox="0 0 32 32" fill="none" xmlns="http://www.w3.org/2000/svg">
<path d="M16 2.66699C8.62666 2.66699 2.66666 8.66699 2.66666 16.0003C2.66666 23.3337 8.66666 29.3337 16 29.3337C23.3333 29.3337 29.3333 23.3337 29.3333 16.0003C29.3333 8.66699 23.3333 2.66699 16 2.66699ZM16 26.667C10.1067 26.667 5.33332 21.8937 5.33332 16.0003C5.33332 10.107 10.1067 5.33366 16 5.33366C21.8933 5.33366 26.6667 10.107 26.6667 16.0003C26.6667 21.8937 21.8933 26.667 16 26.667ZM10.6667 18.667L9.33332 10.667L13.3333 13.3337L16 9.33366L18.6667 13.3337L22.6667 10.667L21.3333 18.667H10.6667ZM11.4133 21.3337C10.96 21.3337 10.6667 21.0403 10.6667 20.587V20.0003H21.3333V20.587C21.3333 21.0403 21.04 21.3337 20.5867 21.3337H11.4133Z" fill="currentColor"/>
</svg>
