<svg width="24" height="24" viewBox="0 0 24 24" fill="none" xmlns="http://www.w3.org/2000/svg">
<path d="M6.84001 10.8C7.32001 8.39998 9.48001 6.59998 12 6.59998C13.8 6.59998 15.24 7.43998 16.2 8.75998L18.24 6.35998C16.8 4.67998 14.52 3.59998 12 3.59998C7.80001 3.59998 4.32001 6.71998 3.72001 10.8H1.20001L5.40001 15.6L9.60001 10.8H6.84001ZM18.6 8.39998L14.4 13.2H17.16C16.56 15.6 14.52 17.4 12 17.4C10.2 17.4 8.76001 16.56 7.80001 15.24L5.76001 17.52C7.20001 19.32 9.48001 20.4 12 20.4C16.2 20.4 19.68 17.28 20.28 13.2H22.8L18.6 8.39998Z" fill="#3377FF"/>
</svg>
