<svg xmlns="http://www.w3.org/2000/svg" x="0px" y="0px" viewBox="0 0 24 24">
<path d="M22,14h-1c0-3.9-3.1-7-7-7h-1V5.7c0.6-0.3,1-1,1-1.7c0-1.1-0.9-2-2-2s-2,0.9-2,2c0,0.7,0.4,1.4,1,1.7V7h-1c-3.9,0-7,3.1-7,7
	H2c-0.5,0-1,0.4-1,1v3c0,0.5,0.5,1,1,1h1v1c0,1.1,0.9,2,2,2h14c1.1,0,2-0.9,2-2v-1h1c0.5,0,1-0.5,1-1v-3C23,14.4,22.5,14,22,14
	 M9.7,15.4L9,16.2l-1.5,1.5l-2.2-2.2c-0.4-0.4-0.4-1.1,0-1.4c0.4-0.4,1.1-0.4,1.5,0l0.7,0.7L8.2,14c0.4-0.4,1.1-0.4,1.5,0
	C10.1,14.4,10.1,15.1,9.7,15.4 M18.7,15.4L18,16.2l-1.5,1.5l-2.2-2.2c-0.4-0.4-0.4-1.1,0-1.4c0.4-0.4,1.1-0.4,1.5,0l0.7,0.7l0.7-0.7
	c0.4-0.4,1.1-0.4,1.5,0C19.1,14.4,19.1,15.1,18.7,15.4z"/>
</svg>
