<svg width="24" height="24" viewBox="0 0 24 24" fill="none" xmlns="http://www.w3.org/2000/svg">
<path d="M13.1625 20.1696L13.4531 20.5765L13.1625 20.1696ZM10.8375 20.1696L10.5469 20.5765H10.5469L10.8375 20.1696ZM8.35009 18.3929L8.64071 17.986L8.35009 18.3929ZM15.6499 18.3929L15.3593 17.986L15.6499 18.3929ZM11.4506 3.15697L11.3132 2.67621L11.4506 3.15697ZM12.5494 3.15697L12.6868 2.67621L12.5494 3.15697ZM17.5494 4.58554L17.6868 4.10478L17.5494 4.58554ZM6.45056 4.58554L6.3132 4.10478L6.45056 4.58554ZM6.58792 5.0663L11.5879 3.63773L11.3132 2.67621L6.3132 4.10478L6.58792 5.0663ZM12.4121 3.63773L17.4121 5.0663L17.6868 4.10478L12.6868 2.67621L12.4121 3.63773ZM18.5 6.50859V11.883H19.5V6.50859H18.5ZM5.5 11.883V6.50859H4.5V11.883H5.5ZM15.3593 17.986L12.8719 19.7628L13.4531 20.5765L15.9405 18.7998L15.3593 17.986ZM11.1281 19.7628L8.64071 17.986L8.05948 18.7998L10.5469 20.5765L11.1281 19.7628ZM12.8719 19.7628C12.3503 20.1353 11.6497 20.1353 11.1281 19.7628L10.5469 20.5765C11.4161 21.1974 12.5839 21.1974 13.4531 20.5765L12.8719 19.7628ZM4.5 11.883C4.5 14.6281 5.82571 17.2042 8.05948 18.7998L8.64071 17.986C6.66974 16.5782 5.5 14.3052 5.5 11.883H4.5ZM18.5 11.883C18.5 14.3052 17.3303 16.5782 15.3593 17.986L15.9405 18.7998C18.1743 17.2042 19.5 14.6281 19.5 11.883H18.5ZM11.5879 3.63773C11.8573 3.56078 12.1427 3.56078 12.4121 3.63773L12.6868 2.67621C12.2379 2.54795 11.7621 2.54795 11.3132 2.67621L11.5879 3.63773ZM17.4121 5.0663C18.056 5.25029 18.5 5.83887 18.5 6.50859H19.5C19.5 5.39239 18.7601 4.41142 17.6868 4.10478L17.4121 5.0663ZM6.3132 4.10478C5.23994 4.41142 4.5 5.39239 4.5 6.50859H5.5C5.5 5.83887 5.94397 5.25029 6.58792 5.0663L6.3132 4.10478Z" fill="currentColor"/>
<path d="M10 9L14 13M14 9L10 13" stroke="currentColor" stroke-linecap="round"/>
</svg>
