<svg width="25" height="24" viewBox="0 0 25 24" fill="none" xmlns="http://www.w3.org/2000/svg">
<path d="M21.7649 15.1113L22.2092 13.8541L24.7234 14.7428L24.2791 15.9999L21.7649 15.1113ZM22.3334 6.66671H23.6667V8.00004H22.3334V6.66671ZM21 1.33337V4.05312e-05H23.6667V1.33337H21ZM17 8.00004H15.6667V5.33337H17V8.00004ZM12.9623 24C6.33484 24 0.962255 18.6275 0.962255 12H3.62892C3.62892 17.1547 7.8076 21.3334 12.9623 21.3334V24ZM0.962255 12C0.962255 5.37262 6.33484 4.05312e-05 12.9623 4.05312e-05V2.66671C7.8076 2.66671 3.62892 6.84538 3.62892 12H0.962255ZM24.2791 15.9999C22.6324 20.6589 18.1892 24 12.9623 24V21.3334C17.024 21.3334 20.4829 18.7381 21.7649 15.1113L24.2791 15.9999ZM12.9623 4.05312e-05C15.2638 4.05312e-05 17.1827 0.563753 18.8933 1.61369C20.5766 2.64689 22.0002 4.11595 23.3745 5.83378L21.2922 7.49963C19.9998 5.88413 18.8019 4.68653 17.4983 3.88639C16.222 3.103 14.7887 2.66671 12.9623 2.66671V4.05312e-05ZM23.6667 1.33337V6.66671H21V1.33337H23.6667ZM22.3334 8.00004H17V5.33337H22.3334V8.00004Z" fill="#667085"/>
</svg>
