<svg width="617" height="617" viewBox="0 0 617 617" fill="none" xmlns="http://www.w3.org/2000/svg">
<rect x="4.18066" y="4.63306" width="608" height="608" rx="304" fill="#1D1F2B" stroke="#FEBF2F" stroke-width="8"/>
<path d="M371.657 144.167H243.892C228.106 144.167 213.529 152.631 205.602 166.267L141.719 276.903C133.793 290.607 133.793 307.468 141.719 321.171L205.602 431.807C213.529 445.511 228.106 453.908 243.892 453.908H371.657C387.443 453.908 402.02 445.444 409.947 431.807L473.829 321.171C481.756 307.468 481.756 290.607 473.829 276.903L410.014 166.267C402.02 152.564 387.443 144.167 371.657 144.167Z" fill="#363740"/>
<path d="M459.75 363.787C426.345 362.451 396.607 374.501 374.292 382.218C374.292 382.218 299.935 410.45 276.115 378.465C268.59 366.115 281.026 340.245 291.969 321.725C293.519 322.226 294.809 322.727 296.088 322.972C297.129 323.473 299.188 324.977 298.951 328.518C298.973 333.073 298.487 336.614 298.498 338.886C298.498 339.142 298.012 343.441 299.551 343.942C300.841 344.187 302.119 343.92 301.836 338.864C301.293 333.819 300.241 329.264 302.029 327.237C303.556 324.954 305.095 325.199 307.404 324.676C320.247 323.852 317.837 305.398 316.773 300.097C316.773 299.34 315.993 298.828 315.223 299.095C312.485 300.097 309.248 300.61 306.001 300.888C319.761 280.586 340.424 255.707 346.24 240.751C352.837 225.549 348.39 212.676 336.814 209.201C335.784 208.945 333.725 208.711 333.736 209.969C335.365 226.151 286.65 289.64 286.65 289.64C284.614 292.681 282.316 295.732 280.54 298.772C272.302 297.057 263.555 294.318 254.547 291.589C273.875 256.587 277.258 220.66 264.358 211.373C258.168 206.851 252.012 209.669 248.686 211.963C247.667 212.475 247.927 214.246 248.957 214.491C268.783 221.718 243.356 268.637 233.952 285.13C219.276 280.653 205.119 276.688 192.004 275.497C144.964 270.953 125.67 313.038 125.67 313.038C115 334.598 114.581 349.766 116.957 361.894C121.461 384.635 139.204 388.076 139.204 388.076C184.751 398.689 233.669 326.101 247.927 303.004C256.165 306.501 264.415 310.243 271.883 313.495C246.728 362.184 267.934 386.851 267.934 386.851C298.238 427.399 385.178 398.088 385.178 398.088C399.538 393.956 414.939 390.337 429.321 388.989C431.381 388.989 433.429 389.468 433.7 390.983C434.232 393.767 433.214 395.794 433.225 398.578C433.248 401.106 433.259 403.634 435.828 403.367C436.858 403.111 437.095 400.07 437.084 398.3C436.812 395.772 436.032 393.5 437.299 391.217C438.057 389.446 440.366 388.678 443.455 389.413C447.053 390.159 451.93 389.368 454.759 389.101C468.395 391.05 480.243 396.295 488.005 406.875C488.526 407.632 489.816 407.621 490.065 406.875C495.157 399.257 513.466 365.77 459.75 363.799V363.787ZM160.659 364.946C157.615 372.296 154.3 375.091 153.01 376.116C148.144 378.666 144.296 379.702 142.237 378.955C131.43 375.47 132.63 362.061 135.131 348.898C138.129 334.22 145.507 322.036 145.507 322.036C145.507 322.036 149.321 314.174 156.982 306.044C158.521 305.276 163.907 302.971 163.952 312.325C163.986 317.883 163.703 357.339 160.659 364.946ZM165.819 367.696C165.276 364.155 164.79 367.451 164.484 360.625C164.19 353.286 165.31 324.197 166.804 316.101C168.558 307.748 166.227 304.975 171.59 298.872C175.924 293.794 180.021 291.244 183.099 290.219C185.667 289.696 188.236 289.429 191.065 289.161C193.883 289.139 196.712 289.128 199.541 289.362C201.86 289.607 204.95 291.11 204.972 294.897C204.735 299.452 201.713 308.829 205.051 310.076C208.141 311.067 209.148 306.757 207.835 301.968C206.783 296.912 206.76 293.371 212.407 293.338C219.095 293.304 219.604 293.048 222.433 293.538C224.232 294.039 225.782 294.785 227.581 295.275C205.425 330.3 182.703 354.455 165.819 367.696Z" fill="#FEBF2F"/>
<path d="M485.162 228.376C470.417 212.272 447.027 210.123 447.027 210.123C447.027 210.123 388.886 199.064 358.865 250.816C358.865 250.816 352.834 261.429 350.933 273.501L369.14 294.415C369.332 294.638 369.525 294.861 369.694 295.084C369.717 286.698 372.229 273.902 382.798 258.021C382.798 258.021 383.817 256.752 385.605 254.469C387.392 252.687 390.21 250.905 391.772 254.68C392.292 255.95 393.639 266.051 393.412 271.619C393.186 277.688 392.767 293.881 390.504 301.977C388.49 309.583 389.565 317.412 383.647 316.945C380.988 316.432 378.453 315.798 375.873 315.052C375.613 317.88 374.911 320.687 373.745 323.404L372.863 325.464C378.181 326.834 383.443 327.992 388.343 328.805C383.511 336.411 379.437 343.773 377.163 350.867C368.087 381.002 389.972 388.475 395.63 388.942C396.4 388.942 396.909 388.185 396.649 387.428C392.439 369.999 401.311 349.72 413.532 329.93C421.759 329.874 432.543 328.549 443.825 325.453C445.624 325.197 452.561 324.395 452.617 334.763C452.651 339.819 451.418 348.428 451.429 350.956C451.429 351.457 450.433 356.524 452.233 357.025C454.032 357.515 456.351 357.248 455.797 351.19C455.254 345.12 453.115 332.235 455.163 329.696C457.2 327.402 458.965 320.82 462.553 318.526C479.198 310.085 493.762 295.841 498.775 272.298C502.52 255.081 495.244 239.445 485.162 228.376ZM470.836 285.851C456.318 307.935 435.553 315.386 421.431 317.747C435.949 296.42 452.029 276.608 456.827 262.42C461.376 248.733 442.863 245.804 436.175 245.081C435.146 245.081 434.127 246.105 434.127 247.119C435.01 267.086 416.135 290.206 399.557 312.802C395.981 316.366 394.917 310.307 394.884 304.739C394.85 298.169 394.306 293.358 395.529 281.475C396.479 269.325 395.461 269.837 395.438 267.053C396.128 252.13 399.41 242.252 405.034 237.163C413.227 231.55 423.739 226.939 435.553 225.614C451.214 223.754 464.85 226.46 473.642 236.027C473.642 236.027 492.494 253.11 470.836 285.851Z" fill="#FEBF2F"/>
</svg>
