<svg width="20" height="20" viewBox="0 0 20 20" fill="none" xmlns="http://www.w3.org/2000/svg">
<path d="M9.08331 1.69639C9.37187 0.76787 10.6281 0.767871 10.9167 1.69639L12.3807 6.40712C12.5097 6.82235 12.8798 7.10349 13.2973 7.10351L18.0343 7.10369C18.968 7.10373 19.3562 8.35304 18.6009 8.92694L14.7687 11.8385C14.4309 12.0952 14.2895 12.5501 14.4185 12.9653L15.8822 17.6761C16.1707 18.6047 15.1543 19.3768 14.3989 18.803L10.5665 15.8917C10.2287 15.6351 9.77129 15.6351 9.43348 15.8917L5.60107 18.803C4.84567 19.3768 3.82934 18.6047 4.11783 17.6761L5.58147 12.9653C5.71048 12.5501 5.56913 12.0952 5.23134 11.8385L1.39914 8.92694C0.643788 8.35304 1.032 7.10373 1.96569 7.10369L6.70267 7.10351C7.12022 7.10349 7.49028 6.82235 7.61933 6.40712L9.08331 1.69639Z" stroke="currentColor" stroke-width="1.5"/>
</svg>
