<svg width="100" height="125" viewBox="0 0 100 125" fill="none" xmlns="http://www.w3.org/2000/svg">
<path d="M49.4026 109.749C74.7575 109.749 95.3437 113.133 95.3437 117.301C95.3437 121.469 74.7575 124.853 49.4026 124.853C24.0477 124.853 3.46143 121.469 3.46143 117.301C3.46143 113.133 24.0477 109.749 49.4026 109.749Z" fill="#DCDCDC"/>
<path d="M55.0666 24.3211L66.1415 46.7624C66.9641 48.4307 68.5563 49.5868 70.3971 49.8536L95.1619 53.4521C98.25 53.9009 100.389 56.7687 99.9404 59.8575C99.7617 61.0866 99.1827 62.2231 98.2928 63.0903L80.3739 80.5574C79.0422 81.8564 78.4343 83.7274 78.7483 85.5612L82.9812 110.225C83.5073 113.301 81.4399 116.222 78.3631 116.748C77.1385 116.958 75.8792 116.758 74.7797 116.181L52.6304 104.535C50.9841 103.668 49.0162 103.668 47.3705 104.535L25.2193 116.181C22.4572 117.633 19.0412 116.57 17.5893 113.807C17.011 112.707 16.8121 111.447 17.0223 110.223L21.2514 85.5587C21.5654 83.7255 20.9575 81.8551 19.6271 80.5555L1.70626 63.0878C-0.528492 60.9097 -0.573804 57.332 1.60431 55.0972C2.47216 54.2073 3.60873 53.6277 4.83907 53.4496L29.6045 49.8511C31.4447 49.5836 33.0356 48.4282 33.8588 46.7598L44.9331 24.3185C46.317 21.5199 49.7078 20.3739 52.5058 21.7584C53.6179 22.3085 54.5165 23.209 55.0666 24.3211Z" fill="#FFC13B"/>
<path d="M95.1624 53.4526L70.397 49.8541C68.5562 49.5873 66.964 48.4312 66.1415 46.7628L55.0671 24.3215C54.5171 23.2095 53.6178 22.3096 52.5058 21.7595C49.7084 20.375 46.3176 21.5204 44.933 24.3184L41.6611 30.9497C43.0589 30.0252 44.8959 29.8464 46.5063 30.6438C47.4636 31.1171 48.2383 31.8924 48.7115 32.8496L58.2459 52.1688C58.9539 53.6056 60.3239 54.6005 61.9092 54.8302L83.2303 57.9291C85.8886 58.3155 87.73 60.7837 87.3436 63.4426C87.1901 64.5012 86.6916 65.4791 85.9251 66.2262L70.499 81.264C69.3523 82.3817 68.8281 83.9928 69.0987 85.5712L72.7425 106.805C73.1963 109.454 71.4159 111.968 68.767 112.421C68.4278 112.479 68.0861 112.496 67.7463 112.483L74.7803 116.181C75.8797 116.76 77.1384 116.958 78.3624 116.749C81.4392 116.223 83.5072 113.303 82.9805 110.226L78.7482 85.5611C78.4336 83.7278 79.0421 81.8568 80.3738 80.5585L98.2927 63.0908C99.1826 62.2236 99.7616 61.0877 99.9403 59.8573C100.39 56.7698 98.2505 53.902 95.1624 53.4526Z" fill="#FEA547"/>
<path d="M87.2246 53.8391C87.2234 62.5289 80.178 69.5724 71.4882 69.5711C63.1326 69.5698 56.2345 63.0368 55.7795 54.6931C55.7795 54.4093 55.7619 54.1229 55.7619 53.8391V53.7522C55.7499 45.065 62.7833 38.0133 71.4706 38.0014C80.1579 37.9894 87.2101 45.0222 87.2221 53.7094L87.2246 53.8391ZM26.2274 69.573C17.5394 69.5698 10.4972 62.527 10.4935 53.8391V53.7094C10.5677 45.0228 17.6697 38.0404 26.3564 38.1146C35.0437 38.1889 42.0248 45.2915 41.9512 53.9782C41.8776 62.6107 34.8605 69.5698 26.2274 69.573ZM93.5903 52.5874C93.2901 52.2884 92.8829 52.121 92.4594 52.1216H89.5361C88.5934 42.1593 79.7526 34.8478 69.7909 35.7905C62.0696 36.5212 55.67 42.0851 53.8726 49.6289C51.3956 46.8787 47.1576 46.6572 44.4075 49.1342C44.2174 49.3067 44.0362 49.4885 43.8662 49.6811C41.5767 39.9416 31.8246 33.9019 22.0851 36.192C14.5168 37.9711 8.92769 44.3815 8.19515 52.1216H5.27191C4.39021 52.1216 3.67529 52.8359 3.67529 53.7176C3.67529 54.5993 4.39021 55.3142 5.27191 55.3142H8.16997C9.0246 65.281 17.7962 72.668 27.7636 71.8134C36.7838 71.0406 43.848 63.7259 44.3061 54.6843C44.3061 54.6843 44.7838 50.0002 48.8782 50.0002C53.1294 50.0002 53.3905 54.6843 53.3905 54.6843C53.8971 64.6749 62.4063 72.3634 72.3976 71.8568C81.4392 71.3987 88.7539 64.3344 89.5267 55.3142H92.4248C93.3071 55.3142 94.0227 54.5993 94.0233 53.7176C94.0239 53.2935 93.8552 52.8869 93.5557 52.5874H93.5903ZM13.0441 53.8297H14.7698C14.7754 47.4998 19.9051 42.3702 26.2349 42.3645V40.6389C18.9536 40.6477 13.053 46.5477 13.0441 53.8297ZM13.0441 53.8297H14.7698C14.7754 47.4998 19.9051 42.3702 26.2349 42.3645V40.6389C18.9536 40.6477 13.053 46.5477 13.0441 53.8297ZM13.0441 53.8297H14.7698C14.7754 47.4998 19.9051 42.3702 26.2349 42.3645V40.6389C18.9536 40.6477 13.053 46.5477 13.0441 53.8297Z" fill="#5B29FF"/>
<path d="M34.2702 67.9014C31.7183 67.9014 29.6484 69.3979 29.6484 71.2444H38.892C38.892 69.3979 36.8234 67.9014 34.2702 67.9014Z" fill="#D90658"/>
<path d="M63.5966 67.9014C61.044 67.9014 58.9741 69.3979 58.9741 71.2444H68.2184C68.2184 69.3979 66.1491 67.9014 63.5966 67.9014Z" fill="#D90658"/>
<path d="M33.2436 44.9678C35.4198 44.9678 37.1845 46.7324 37.1845 48.9086C37.1845 51.0849 35.4198 52.8495 33.2436 52.8495C31.0674 52.8495 29.3027 51.0849 29.3027 48.9086C29.3027 46.7324 31.0674 44.9678 33.2436 44.9678Z" fill="#421C40"/>
<path d="M66.4565 45.9121C68.6315 45.9121 70.3974 47.678 70.3974 49.853C70.3974 52.0279 68.6315 53.7938 66.4565 53.7938C64.2815 53.7938 62.5156 52.0279 62.5156 49.853C62.5156 47.678 64.2815 45.9121 66.4565 45.9121Z" fill="#421C40"/>
<path d="M43.1177 73.9346C43.1177 73.9346 48.8622 83.788 54.2235 73.9346" stroke="#421840" stroke-linecap="round" stroke-linejoin="round"/>
<g opacity="0.96875">
<path d="M38.1952 15.3771C38.1586 13.1641 39.9389 11.3826 42.1538 11.4192V10.9534C39.9389 10.99 38.1599 9.20917 38.1964 6.99609L37.7313 6.99792C37.7678 9.211 35.9913 10.9888 33.7764 10.9522V11.418C35.9913 11.3814 37.7672 13.1641 37.7306 15.3771H38.1952Z" fill="#5B29FF"/>
<path d="M54.7613 8.42746C54.7394 7.07706 55.7837 6.03087 57.1347 6.05282L57.1335 5.69068C55.7825 5.71263 54.74 4.66523 54.7619 3.31543L54.3974 3.31665C54.4199 4.66706 53.3774 5.70958 52.0264 5.68702L52.0276 6.05526C53.3786 6.03331 54.4193 7.07706 54.3967 8.42746H54.7613Z" fill="#FFA63A"/>
<path d="M46.9104 7.28179C46.8792 5.35821 48.3668 3.86799 50.2912 3.89925L50.2895 3.3834C48.365 3.41467 46.88 1.9227 46.9113 0L46.392 0.00173686C46.4241 1.92531 44.9391 3.41032 43.0146 3.37819L43.0164 3.90272C44.9408 3.87146 46.4232 5.35821 46.3911 7.28179H46.9104Z" fill="#3AADFF"/>
<path d="M62.7905 24.9248C62.7905 24.9248 63.4106 25.2735 64.1391 25.6241C64.7079 25.8966 65.3859 26.163 65.3859 26.7495C65.3859 27.939 62.7905 27.5787 62.7905 28.6962C62.7905 29.8137 65.3859 29.793 65.3859 31.0007C65.3859 32.2085 62.7905 32.2822 62.7905 33.5259C62.7905 34.7697 65.4212 34.5849 65.3859 35.7963C65.3718 36.2761 64.9469 36.5035 64.1391 36.8821C63.3313 37.2607 62.7905 37.5253 62.7905 37.5253" stroke="#EC9454" stroke-width="1.9375" stroke-linecap="round" stroke-linejoin="round"/>
<path d="M24.7158 17.3057C24.7158 17.3057 25.5255 18.0619 26.4984 18.91C27.2586 19.5719 28.186 20.3208 27.9667 20.7165C27.5219 21.519 23.7236 19.0957 23.3059 19.8491C22.8883 20.6026 26.8288 22.7694 26.3774 23.5836C25.9261 24.3979 21.9649 22.2684 21.5 23.1071C21.0351 23.9459 25.0909 26.0303 24.5845 26.8182C24.3837 27.13 23.6548 26.926 22.2895 26.5031C20.9241 26.0802 20.0047 25.8047 20.0047 25.8047" stroke="#B40342" stroke-width="1.45312" stroke-linecap="round" stroke-linejoin="round"/>
<path d="M75.5603 35.5114C75.5603 35.5114 74.9175 36.1123 74.1444 36.7862C73.5402 37.3121 72.8031 37.9076 72.9772 38.2216C73.3307 38.8594 76.3486 36.9335 76.6805 37.5323C77.0124 38.1311 73.8813 39.8528 74.2401 40.5001C74.599 41.1474 77.7461 39.4546 78.1155 40.1211C78.485 40.7876 75.2627 42.4441 75.6648 43.0702C75.8238 43.3181 76.4036 43.1556 77.4888 42.8197C78.574 42.4837 79.3037 42.2646 79.3037 42.2646" stroke="#B40342" stroke-width="0.96875" stroke-linecap="round" stroke-linejoin="round"/>
<path d="M30.5571 28.4756C30.5571 28.4756 31.0284 27.8824 31.4411 27.0563C31.6082 26.7229 31.7655 26.351 31.9392 25.9108C32.0831 25.548 32.2093 25.1719 32.2093 25.1719C32.2093 25.1719 32.5641 26.2303 32.9537 27.0563C33.3433 27.8824 33.7676 28.4756 33.7676 28.4756C33.7676 28.4756 33.3433 29.028 32.9537 29.8248C32.5641 30.6217 32.2093 31.663 32.2093 31.663C32.2093 31.663 31.8539 30.6217 31.4411 29.8248C31.0284 29.028 30.5571 28.4756 30.5571 28.4756Z" fill="#66CCFF"/>
<path d="M75.0625 27.8663C75.0625 27.8663 75.5338 27.2731 75.9465 26.447C76.1136 26.1135 76.2709 25.7416 76.4446 25.3014C76.5885 24.9387 76.7147 24.5625 76.7147 24.5625C76.7147 24.5625 77.0695 25.6209 77.4591 26.447C77.8487 27.2731 78.273 27.8663 78.273 27.8663C78.273 27.8663 77.8487 28.4186 77.4591 29.2155C77.0695 30.0123 76.7147 31.0536 76.7147 31.0536C76.7147 31.0536 76.3593 30.0123 75.9465 29.2155C75.5338 28.4186 75.0625 27.8663 75.0625 27.8663Z" fill="#66CCFF"/>
<path d="M51.1426 19.1797C51.1426 19.1797 51.6138 18.5865 52.0266 17.7604C52.1936 17.427 52.3509 17.0551 52.5247 16.6149C52.6686 16.2521 52.7948 15.876 52.7948 15.876C52.7948 15.876 53.1496 16.9344 53.5392 17.7604C53.9287 18.5865 54.3531 19.1797 54.3531 19.1797C54.3531 19.1797 53.9287 19.7321 53.5392 20.5289C53.1496 21.3258 52.7948 22.3671 52.7948 22.3671C52.7948 22.3671 52.4393 21.3258 52.0266 20.5289C51.6138 19.7321 51.1426 19.1797 51.1426 19.1797Z" fill="#EB6F6D"/>
<path d="M20.2018 37.7373C21.2272 37.7373 22.0594 38.5689 22.0594 39.5943C22.0594 40.6198 21.2272 41.452 20.2018 41.452C19.1763 41.452 18.3447 40.6198 18.3447 39.5943C18.3447 38.5689 19.1763 37.7373 20.2018 37.7373Z" fill="#4E024E"/>
<path d="M72.4441 15.6101L69.8174 18.2368L67.1907 15.6101L69.8174 12.9834L72.4441 15.6101Z" fill="#D31B5C"/>
<path d="M57.8122 42.4353L55.1855 45.0619L52.5589 42.4353L55.1855 39.8086L57.8122 42.4353Z" fill="#D31B5C"/>
<path d="M43.2348 21.5391C43.9189 21.5391 44.473 22.0932 44.473 22.7773C44.473 23.4613 43.9189 24.0155 43.2348 24.0155C42.5508 24.0155 41.9966 23.4613 41.9966 22.7773C41.9966 22.0932 42.5508 21.5391 43.2348 21.5391Z" fill="#424242"/>
<path d="M39.9737 44.544C40.2059 44.5293 40.4388 44.5244 40.6699 44.4982C41.0259 44.4574 41.3728 44.3739 41.6734 44.1666C41.785 44.0879 41.8868 43.9959 41.977 43.8928C42.0471 43.8227 42.0465 43.7093 41.9764 43.6392L41.9691 43.6325C41.9209 43.5722 41.8618 43.5203 41.7947 43.4813C41.6588 43.4069 41.5161 43.3454 41.3686 43.2984C40.765 43.1247 40.1529 43.1387 39.539 43.2368C39.0884 43.3063 38.6586 43.4746 38.2812 43.7307C38.2129 43.7788 38.1508 43.8343 38.0959 43.8965C38.0404 43.9483 38.0374 44.0343 38.088 44.0898C38.0934 44.0952 38.0995 44.1001 38.1056 44.105C38.1715 44.1641 38.2477 44.2117 38.33 44.2446C38.8586 44.4458 39.4109 44.5177 39.9737 44.544ZM40.6595 39.1503C40.0541 39.171 39.5073 39.1905 38.9677 39.2935C38.4513 39.3874 37.9581 39.5795 37.5149 39.8599C37.4344 39.9105 37.3619 39.9739 37.3003 40.0465C37.2478 40.1032 37.2515 40.1922 37.3082 40.2446C37.3234 40.2586 37.3411 40.2696 37.3606 40.2763C37.4368 40.3111 37.5149 40.3391 37.5954 40.3629C38.0983 40.5074 38.6159 40.5988 39.1384 40.6372C40.1108 40.7153 41.0893 40.6732 42.0514 40.511C42.4215 40.4476 42.7885 40.3586 43.1518 40.2623C43.2634 40.2227 43.3652 40.158 43.4481 40.0733C43.5256 40.0129 43.539 39.9014 43.4786 39.8245C43.4719 39.816 43.4646 39.8075 43.4561 39.8002C43.3841 39.7136 43.2963 39.6404 43.1976 39.5856C43.0189 39.4959 42.8311 39.4252 42.6379 39.3722C41.9709 39.1996 41.2863 39.1698 40.6595 39.1503ZM41.7514 34.376C41.8539 34.3894 41.9551 34.4095 42.0575 34.4156C42.9653 34.4711 43.8645 34.6229 44.74 34.8698C44.965 34.9216 45.1229 35.1234 45.1192 35.3539C45.118 35.5721 44.9638 35.7593 44.7498 35.8014C44.6492 35.8172 44.5467 35.813 44.4486 35.7873C43.8298 35.6264 43.1994 35.5142 42.5629 35.4502C41.8362 35.3831 41.1052 35.3703 40.3766 35.4136C39.5164 35.4593 38.6629 35.5935 37.8307 35.8142C37.0381 36.0172 36.2864 36.3531 35.606 36.8079C35.3256 36.9969 35.0756 37.2286 34.8659 37.495C34.5111 37.9321 34.5379 38.565 34.9275 38.971C35.2103 39.2728 35.5432 39.5234 35.9121 39.7105C36.0389 39.7776 36.1492 39.7508 36.2754 39.6282C36.5705 39.3423 36.9028 39.0978 37.2631 38.9009C37.8801 38.5668 38.5531 38.3498 39.2488 38.2601C40.2297 38.1175 41.2283 38.1266 42.2069 38.2894C42.722 38.3772 43.2238 38.5095 43.6841 38.7686C44.006 38.9338 44.262 39.2033 44.4108 39.5337C44.6205 40.016 44.3913 40.6372 43.9932 40.8908C43.692 41.0762 43.3658 41.2158 43.0238 41.3054C42.3593 41.4841 41.6764 41.5907 40.9887 41.6224C40.4998 41.6505 40.009 41.6584 39.5195 41.6444C38.572 41.6176 37.6374 41.4225 36.7589 41.067C36.5388 40.978 36.4022 41.0311 36.3285 41.2615C36.1882 41.6895 36.2114 42.1541 36.3937 42.5662C36.5175 42.8424 36.6906 43.0948 36.9052 43.3094C37.0332 43.4429 37.1399 43.4466 37.2765 43.313C37.624 42.982 38.0288 42.7162 38.4714 42.5302C39.1445 42.2352 39.8834 42.1272 40.6126 42.2156C40.9485 42.2528 41.2808 42.3108 41.6094 42.3882C41.9203 42.4559 42.2142 42.5857 42.4733 42.7711C42.7653 42.9722 42.9665 43.2807 43.0323 43.6288C43.0586 43.8203 43.0226 44.0148 42.9311 44.1843C42.7452 44.5799 42.4306 44.8488 42.0563 45.0567C41.5301 45.3402 40.9461 45.4999 40.3486 45.5231C39.5536 45.5615 38.7604 45.428 38.0221 45.1323C37.8154 45.0518 37.76 45.089 37.7642 45.3103C37.7758 45.8175 37.9794 46.248 38.3032 46.6284C38.7251 47.1241 39.2695 47.3435 39.9127 47.3405C40.0023 47.3362 40.0913 47.3411 40.1803 47.3557C40.2712 47.371 40.3583 47.4033 40.4376 47.4502C40.5986 47.5563 40.7095 47.7038 40.6674 47.9099C40.629 48.1062 40.4791 48.2623 40.2834 48.308C40.2303 48.3239 40.173 48.3318 40.1181 48.3428H39.8664C39.7365 48.3245 39.6066 48.3099 39.4774 48.2885C38.8525 48.1867 38.2885 47.9489 37.8167 47.5191C37.2923 47.0405 37.0015 46.4296 36.8314 45.7511C36.743 45.3987 36.7467 45.0396 36.7382 44.6811C36.7376 44.5787 36.6991 44.4793 36.6309 44.4031C36.5784 44.3458 36.5236 44.2916 36.465 44.2403C36.0133 43.8435 35.6627 43.3441 35.4438 42.7839C35.2756 42.3522 35.1744 41.9065 35.2914 41.4426C35.3378 41.2579 35.4152 41.0811 35.4713 40.8988C35.5499 40.6445 35.506 40.547 35.2731 40.4263C34.6805 40.1202 34.1806 39.713 33.8685 39.1106C33.6746 38.7357 33.5612 38.3418 33.6496 37.9102C33.7837 37.2591 34.1489 36.7543 34.6397 36.3281C35.1567 35.88 35.7578 35.5715 36.3827 35.3088C37.6075 34.7948 38.8909 34.5333 40.2108 34.4302C40.4254 34.4132 40.6382 34.3937 40.8528 34.376H41.7514Z" fill="#FFA63A"/>
</g>
</svg>
