<svg width="24" height="24" viewBox="0 0 24 24" fill="none" xmlns="http://www.w3.org/2000/svg">
<path d="M3 5.25C2.58579 5.25 2.25 5.58579 2.25 6C2.25 6.41421 2.58579 6.75 3 6.75V5.25ZM21 6.75C21.4142 6.75 21.75 6.41421 21.75 6C21.75 5.58579 21.4142 5.25 21 5.25V6.75ZM19 6H19.75C19.75 5.58579 19.4142 5.25 19 5.25V6ZM5 20H4.25H5ZM7.25 6C7.25 6.41421 7.58579 6.75 8 6.75C8.41421 6.75 8.75 6.41421 8.75 6H7.25ZM10 2V1.25V2ZM14 2V1.25V2ZM15.25 6C15.25 6.41421 15.5858 6.75 16 6.75C16.4142 6.75 16.75 6.41421 16.75 6H15.25ZM10.75 11C10.75 10.5858 10.4142 10.25 10 10.25C9.58579 10.25 9.25 10.5858 9.25 11H10.75ZM9.25 17C9.25 17.4142 9.58579 17.75 10 17.75C10.4142 17.75 10.75 17.4142 10.75 17H9.25ZM14.75 11C14.75 10.5858 14.4142 10.25 14 10.25C13.5858 10.25 13.25 10.5858 13.25 11H14.75ZM13.25 17C13.25 17.4142 13.5858 17.75 14 17.75C14.4142 17.75 14.75 17.4142 14.75 17H13.25ZM3 6.75H5V5.25H3V6.75ZM5 6.75H21V5.25H5V6.75ZM18.25 6V20H19.75V6H18.25ZM18.25 20C18.25 20.3315 18.1183 20.6495 17.8839 20.8839L18.9445 21.9445C19.4603 21.4288 19.75 20.7293 19.75 20H18.25ZM17.8839 20.8839C17.6495 21.1183 17.3315 21.25 17 21.25V22.75C17.7293 22.75 18.4288 22.4603 18.9445 21.9445L17.8839 20.8839ZM17 21.25H7V22.75H17V21.25ZM7 21.25C6.66848 21.25 6.35054 21.1183 6.11612 20.8839L5.05546 21.9445C5.57118 22.4603 6.27065 22.75 7 22.75V21.25ZM6.11612 20.8839C5.8817 20.6495 5.75 20.3315 5.75 20H4.25C4.25 20.7293 4.53973 21.4288 5.05546 21.9445L6.11612 20.8839ZM5.75 20V6H4.25V20H5.75ZM5 6.75H19V5.25H5V6.75ZM8.75 6V4H7.25V6H8.75ZM8.75 4C8.75 3.66848 8.8817 3.35054 9.11612 3.11612L8.05546 2.05546C7.53973 2.57118 7.25 3.27065 7.25 4H8.75ZM9.11612 3.11612C9.35054 2.8817 9.66848 2.75 10 2.75V1.25C9.27065 1.25 8.57118 1.53973 8.05546 2.05546L9.11612 3.11612ZM10 2.75H14V1.25H10V2.75ZM14 2.75C14.3315 2.75 14.6495 2.8817 14.8839 3.11612L15.9445 2.05546C15.4288 1.53973 14.7293 1.25 14 1.25V2.75ZM14.8839 3.11612C15.1183 3.35054 15.25 3.66848 15.25 4H16.75C16.75 3.27065 16.4603 2.57118 15.9445 2.05546L14.8839 3.11612ZM15.25 4V6H16.75V4H15.25ZM9.25 11V17H10.75V11H9.25ZM13.25 11V17H14.75V11H13.25Z" fill="currentColor"/>
</svg>
