<svg width="18" height="18" viewBox="0 0 18 18" fill="none" xmlns="http://www.w3.org/2000/svg">
<path d="M15.4319 0.500003H15.432C15.6903 0.499972 15.9139 0.500287 16.0975 0.51529C16.295 0.531421 16.4917 0.56703 16.681 0.663495C16.9632 0.807305 17.1927 1.03678 17.3365 1.31902C17.433 1.50834 17.4686 1.70506 17.4847 1.90249C17.4997 2.08612 17.5 2.30968 17.5 2.56805V2.56811L17.5 9C17.5 9.27615 17.2761 9.5 17 9.5H11C10.7239 9.5 10.5 9.27615 10.5 9V1.00001C10.5 0.723863 10.7239 0.500005 11 0.500005L15.4319 0.500003ZM2.56805 0.500003H2.56811L7 0.500005C7.27615 0.500005 7.5 0.723862 7.5 1.00001V5.00001C7.5 5.27615 7.27615 5.50001 7.00001 5.50001H1.00001C0.723863 5.50001 0.500005 5.27615 0.500005 5.00001L0.500003 2.56809V2.56803C0.499972 2.30967 0.500287 2.08611 0.51529 1.90249C0.531421 1.70506 0.56703 1.50834 0.663495 1.31902C0.807305 1.03678 1.03678 0.807305 1.31902 0.663495C1.50834 0.56703 1.70506 0.531421 1.90249 0.51529C2.08611 0.500287 2.30968 0.499972 2.56805 0.500003ZM15.432 17.5H15.4319L11 17.5C10.7239 17.5 10.5 17.2761 10.5 17V13C10.5 12.7239 10.7239 12.5 11 12.5H17C17.2761 12.5 17.5 12.7239 17.5 13L17.5 15.4319V15.432C17.5 15.6903 17.4997 15.9139 17.4847 16.0975C17.4686 16.295 17.433 16.4917 17.3365 16.681C17.1927 16.9632 16.9632 17.1927 16.681 17.3365C16.4917 17.433 16.295 17.4686 16.0975 17.4847C15.9139 17.4997 15.6903 17.5 15.432 17.5ZM0.500003 15.432V15.4319L0.500005 9C0.500005 8.72386 0.723863 8.5 1.00001 8.5H7.00001C7.27615 8.5 7.5 8.72386 7.5 9V17C7.5 17.2761 7.27615 17.5 7.00001 17.5L2.56812 17.5H2.56806C2.30969 17.5 2.08612 17.4997 1.90249 17.4847C1.70506 17.4686 1.50834 17.433 1.31902 17.3365C1.03678 17.1927 0.807305 16.9632 0.663495 16.681C0.56703 16.4917 0.531421 16.295 0.51529 16.0975C0.500287 15.9139 0.499972 15.6903 0.500003 15.432Z" fill="white" stroke="white"/>
</svg>
