<svg width="18" height="18" viewBox="0 0 18 18" fill="none" xmlns="http://www.w3.org/2000/svg">
<path d="M1 2.6C1 2.03995 1 1.75992 1.10899 1.54601C1.20487 1.35785 1.35785 1.20487 1.54601 1.10899C1.75992 1 2.03995 1 2.6 1H7V5H1V2.6Z" stroke="#1D1F2B" stroke-width="2" stroke-linecap="round" stroke-linejoin="round"/>
<path d="M11 13H17V15.4C17 15.9601 17 16.2401 16.891 16.454C16.7951 16.6422 16.6422 16.7951 16.454 16.891C16.2401 17 15.9601 17 15.4 17H11V13Z" stroke="#1D1F2B" stroke-width="2" stroke-linecap="round" stroke-linejoin="round"/>
<path d="M1 9H7V17H2.6C2.03995 17 1.75992 17 1.54601 16.891C1.35785 16.7951 1.20487 16.6422 1.10899 16.454C1 16.2401 1 15.9601 1 15.4V9Z" stroke="#1D1F2B" stroke-width="2" stroke-linecap="round" stroke-linejoin="round"/>
<path d="M11 1H15.4C15.9601 1 16.2401 1 16.454 1.10899C16.6422 1.20487 16.7951 1.35785 16.891 1.54601C17 1.75992 17 2.03995 17 2.6V9H11V1Z" stroke="#1D1F2B" stroke-width="2" stroke-linecap="round" stroke-linejoin="round"/>
</svg>
