<svg width="23" height="18" viewBox="0 0 23 18" fill="none" xmlns="http://www.w3.org/2000/svg">
<path d="M14.1292 6C15.1292 4.5 14.6228 2.88104 13.6772 1.94365C12.408 0.685451 10.3503 0.685451 9.08105 1.94365L8.12919 2.88733L7.17725 1.94365C5.90804 0.685451 3.85026 0.685451 2.58105 1.94365C1.31185 3.20184 1.31185 5.24178 2.58105 6.49998L8.12919 12L9.62915 10.5M10.5078 11.5C9.33626 10.2418 9.33626 8.20184 10.5078 6.94365C11.6794 5.68545 13.5789 5.68545 14.7505 6.94365L15.6292 7.88733L16.5078 6.94365C17.6794 5.68545 19.5789 5.68545 20.7505 6.94365C21.922 8.20184 21.922 10.2418 20.7505 11.5L15.6292 17L10.5078 11.5Z" stroke="currentColor" stroke-width="1.5" stroke-linecap="round" stroke-linejoin="round"/>
</svg>
