<svg width="42" height="34" viewBox="0 0 42 34" fill="none" xmlns="http://www.w3.org/2000/svg">
<path opacity="0.2" d="M38.85 19.125H37.8V14.1246C37.8 11.3462 35.8293 8.80945 33.0973 8.52855C29.9578 8.20781 27.3 10.698 27.3 13.8125V19.125H26.25C24.5175 19.125 23.1 20.5594 23.1 22.3125V30.8125C23.1 32.5656 24.5175 34 26.25 34H38.85C40.5825 34 42 32.5656 42 30.8125V22.3125C42 20.5594 40.5825 19.125 38.85 19.125ZM32.55 28.6875C31.3937 28.6875 30.45 27.7326 30.45 26.5625C30.45 25.3924 31.3937 24.4375 32.55 24.4375C33.7063 24.4375 34.65 25.3924 34.65 26.5625C34.65 27.7326 33.705 28.6875 32.55 28.6875ZM34.65 19.125H30.45V13.8125C30.45 12.6424 31.3937 11.6875 32.55 11.6875C33.7063 11.6875 34.65 12.6424 34.65 13.8125V19.125ZM14.7 17C19.3397 17 23.1 13.1943 23.1 8.5C23.1 3.80574 19.3397 0 14.7 0C10.0603 0 6.3 3.80574 6.3 8.5C6.3 13.1943 10.0603 17 14.7 17ZM21 22.3125C21 21.7366 21.1141 21.1922 21.2824 20.6723C20.2519 20.3602 19.1559 20.1875 18.0272 20.1875H11.3728C5.09316 20.1875 0 25.3473 0 31.7023C0 32.9707 1.0185 34 2.27456 34H22.0736C21.4134 33.1102 21 32.0145 21 30.8125V22.3125Z" fill="white"/>
</svg>
