<svg width="12" height="13" viewBox="0 0 12 13" fill="none" xmlns="http://www.w3.org/2000/svg">
<path fill-rule="evenodd" clip-rule="evenodd" d="M6 12.1304C9.31371 12.1304 12 9.44408 12 6.13037C12 2.81666 9.31371 0.130371 6 0.130371C2.68629 0.130371 0 2.81666 0 6.13037C0 9.44408 2.68629 12.1304 6 12.1304ZM8.37963 5.12243C8.55934 4.91277 8.53506 4.59712 8.3254 4.41741C8.11573 4.2377 7.80008 4.26198 7.62037 4.47164L5.62794 6.79615L4.28434 5.86724C4.0572 5.7102 3.74576 5.76704 3.58872 5.99418C3.43168 6.22132 3.48852 6.53276 3.71566 6.6898L5.42994 7.87498C5.6406 8.02062 5.92725 7.98355 6.09391 7.7891L8.37963 5.12243Z" fill="white"/>
</svg>
