<svg version="1.1" id="Layer_1" xmlns="http://www.w3.org/2000/svg" xmlns:xlink="http://www.w3.org/1999/xlink" x="0px" y="0px"
	 viewBox="0 0 24 24" style="enable-background:new 0 0 24 24;" xml:space="preserve">
<path fill="transparent" stroke="currentColor" d="M11.6,2.1C11.8,2,12.1,2,12.3,2h0.1l9,4C21.8,6.2,22,6.6,22,7v0.1l-0.6,5.2c-0.3,2.6-1.7,5-3.9,6.5L17.2,19
	l-4.7,2.9c-0.3,0.2-0.6,0.2-0.9,0.1l-0.1-0.1L6.8,19c-2.2-1.4-3.8-3.7-4.1-6.3v-0.3L2,7.1c0-0.4,0.1-0.8,0.5-1L2.6,6L11.6,2.1z"/>
<path fill="currentColor" d="M15.3,6.8c0.5-0.6,1.5-0.8,2.1-0.3s0.7,1.3,0.4,1.9l-0.1,0.2l-6,7.5c-0.5,0.7-1.5,0.8-2.1,0.3l-0.1-0.1l-3-3
	c-0.6-0.6-0.6-1.5,0-2.1c0.5-0.5,1.4-0.6,2-0.1l0.1,0.1l1.8,1.8L15.3,6.8z"/>
</svg>
