<svg width="142" height="142" viewBox="0 0 142 142" fill="none" xmlns="http://www.w3.org/2000/svg">
    <path d="M68.6325 12.4246C69.8159 11.8329 71.5909 11.8329 72.7742 11.8329H73.3658L126.616 35.4996C128.983 36.6829 130.166 39.0496 130.166 41.4163V42.0079L126.616 72.7746C124.841 88.1579 116.558 102.358 103.541 111.233L101.766 112.416L73.9575 129.575C72.1825 130.758 70.4075 130.758 68.6325 130.166L68.0409 129.575L40.2325 112.416C27.2159 104.133 17.7492 90.5246 15.9742 75.1413V73.3663L11.8325 42.0079C11.8325 39.6413 12.4242 37.2746 14.7909 36.0913L15.3825 35.4996L68.6325 12.4246Z" />
    <path d="M90.5248 40.2331C93.4832 36.6831 99.3998 35.4997 102.95 38.4581C106.5 41.4164 107.091 46.1497 105.316 49.6997L104.725 50.8831L69.2248 95.2581C66.2665 99.3997 60.3498 99.9914 56.7998 97.0331L56.2082 96.4414L38.4582 78.6914C34.9082 75.1414 34.9082 69.8164 38.4582 66.2664C41.4165 63.3081 46.7415 62.7164 50.2915 65.6747L50.8832 66.2664L61.5332 76.9164L90.5248 40.2331Z" fill="white"/>
</svg>
