<svg width="24" height="24" viewBox="0 0 24 24" fill="none" xmlns="http://www.w3.org/2000/svg">
<path d="M2 7.33333C2 6.04467 3.11929 5 4.5 5H12.5C13.8807 5 15 6.04467 15 7.33333V16.6667C15 17.9553 13.8807 19 12.5 19H4.5C3.11929 19 2 17.9553 2 16.6667V7.33333Z" fill="currentColor"/>
<path d="M17.691 8.62317C17.2675 8.82079 17 9.22477 17 9.66667V14.3333C17 14.7752 17.2675 15.1792 17.691 15.3768L20.191 16.5435C20.5785 16.7243 21.0386 16.705 21.4072 16.4924C21.7757 16.2799 22 15.9043 22 15.5V8.5C22 8.09566 21.7757 7.72015 21.4072 7.50758C21.0386 7.295 20.5785 7.27568 20.191 7.4565L17.691 8.62317Z" fill="currentColor"/>
</svg>
